<svg width="18" height="11" viewBox="0 0 18 11" fill="none" xmlns="http://www.w3.org/2000/svg">
<path d="M14.1429 3.4529C13.7604 3.64375 13.5 3.9941 13.5 4.4C13.5006 4.59217 13.5603 4.78082 13.6732 4.94698C13.786 5.11314 13.948 5.25095 14.1429 5.34655V7.7132C14.0895 7.71045 14.0387 7.7 13.9847 7.7H11.5714V5.34655C11.7663 5.25095 11.9283 5.11314 12.0411 4.94698C12.154 4.78082 12.2137 4.59217 12.2143 4.4C12.2143 3.9941 11.9539 3.64375 11.5714 3.4529V1.1H14.1429V3.4529ZM3.85714 7.7132V5.34655C4.05199 5.25095 4.21398 5.11314 4.32683 4.94698C4.43968 4.78082 4.4994 4.59217 4.5 4.4C4.5 3.9941 4.23964 3.64375 3.85714 3.4529V1.1H6.42857V3.4529C6.04607 3.64375 5.78571 3.9941 5.78571 4.4C5.78631 4.59217 5.84603 4.78082 5.95888 4.94698C6.07173 5.11314 6.23372 5.25095 6.42857 5.34655V7.7H4.01529C3.96129 7.7 3.9105 7.71045 3.85714 7.7132ZM10.2857 3.4529C9.90321 3.64375 9.64286 3.9941 9.64286 4.4C9.64345 4.59217 9.70318 4.78082 9.81602 4.94698C9.92887 5.11314 10.0909 5.25095 10.2857 5.34655V7.7H7.71429V5.34655C7.90913 5.25095 8.07113 5.11314 8.18398 4.94698C8.29682 4.78082 8.35655 4.59217 8.35714 4.4C8.35714 3.9941 8.09679 3.64375 7.71429 3.4529V1.1H10.2857V3.4529ZM17.3571 0H0.642857C0.289286 0 0 0.2475 0 0.55C0 0.85195 0.289286 1.1 0.642857 1.1H2.57143V3.4529C2.18893 3.64375 1.92857 3.9941 1.92857 4.4C1.92917 4.59217 1.98889 4.78082 2.10174 4.94698C2.21459 5.11314 2.37658 5.25095 2.57143 5.34655V8.06025C2.17854 8.26879 1.85429 8.55959 1.62932 8.90518C1.40435 9.25077 1.28609 9.63973 1.28571 10.0353C1.28571 10.5683 1.79036 11 2.41329 11H15.5867C16.2096 11 16.7143 10.5683 16.7143 10.0353C16.7143 9.2004 16.1981 8.4733 15.4286 8.06025V5.34655C15.6234 5.25095 15.7854 5.11314 15.8983 4.94698C16.0111 4.78082 16.0708 4.59217 16.0714 4.4C16.0714 3.9941 15.8111 3.64375 15.4286 3.4529V1.1H17.3571C17.7107 1.1 18 0.85195 18 0.55C18 0.2475 17.7107 0 17.3571 0Z" fill="#F5F3EE"/>
</svg>
