<svg width="19" height="20" viewBox="0 0 19 20" fill="none" xmlns="http://www.w3.org/2000/svg">
<path d="M3 15V4L1.2 1.6C0.950003 1.26667 0.91667 0.916667 1.1 0.55C1.28334 0.183333 1.58334 0 2 0H12.775C13.3917 0 13.9167 0.216667 14.35 0.65C14.7833 1.08333 15 1.60833 15 2.225V3H17C17.55 3 18.021 3.196 18.413 3.588C18.805 3.98 19.0007 4.45067 19 5V10C19 10.55 18.8043 11.021 18.413 11.413C18.0217 11.805 17.5507 12.0007 17 12H15V15C15 15.55 14.8043 16.021 14.413 16.413C14.0217 16.805 13.5507 17.0007 13 17H5C4.45 17 3.97934 16.8043 3.588 16.413C3.19667 16.0217 3.00067 15.5507 3 15ZM15 10H17V5H15V10ZM10.5 3C10.0833 3 9.72934 3.146 9.438 3.438C9.14667 3.73 9.00067 4.084 9 4.5V12.5C9 12.9167 9.146 13.271 9.438 13.563C9.73 13.855 10.084 14.0007 10.5 14C10.916 13.9993 11.2703 13.8537 11.563 13.563C11.8557 13.2723 12.0013 12.918 12 12.5V4.5C12 4.08333 11.8543 3.72933 11.563 3.438C11.2717 3.14667 10.9173 3.00067 10.5 3ZM1 20C0.71667 20 0.479337 19.904 0.288004 19.712C0.0966702 19.52 0.000670115 19.2827 3.44827e-06 19C-0.000663218 18.7173 0.0953369 18.48 0.288004 18.288C0.48067 18.096 0.718003 18 1 18H17C17.2833 18 17.521 18.096 17.713 18.288C17.905 18.48 18.0007 18.7173 18 19C17.9993 19.2827 17.9033 19.5203 17.712 19.713C17.5207 19.9057 17.2833 20.0013 17 20H1Z" fill="#F5F3EE"/>
</svg>
