<svg width="20" height="14" viewBox="0 0 20 14" fill="none" xmlns="http://www.w3.org/2000/svg">
<path d="M14.459 0C15.4059 0.000159777 16.3219 0.336197 17.0443 0.948333C17.7667 1.56047 18.2485 2.40901 18.404 3.343L19.791 11.672C19.8386 11.9583 19.8233 12.2515 19.7462 12.5313C19.6691 12.8111 19.532 13.0708 19.3445 13.2923C19.1569 13.5138 18.9234 13.6919 18.6602 13.8141C18.3969 13.9363 18.1102 13.9997 17.82 14H1C0.734784 14 0.48043 13.8946 0.292893 13.7071C0.105357 13.5196 0 13.2652 0 13C0 10.8783 0.842855 8.84344 2.34315 7.34315C3.84344 5.84285 5.87827 5 8 5H16.652L16.432 3.671C16.3588 3.23136 16.1409 2.82877 15.8128 2.52712C15.4847 2.22548 15.0652 2.04207 14.621 2.006L14.459 2H7C6.73478 2 6.48043 1.89464 6.29289 1.70711C6.10536 1.51957 6 1.26522 6 1C6 0.734784 6.10536 0.48043 6.29289 0.292893C6.48043 0.105357 6.73478 0 7 0H14.459ZM10.01 9H10C9.74512 9.00028 9.49997 9.09788 9.31463 9.27285C9.1293 9.44782 9.01777 9.68695 9.00283 9.94139C8.98789 10.1958 9.07067 10.4464 9.23426 10.6418C9.39785 10.8373 9.6299 10.9629 9.883 10.993L10.01 11C10.2752 11 10.5296 10.8946 10.7171 10.7071C10.9046 10.5196 11.01 10.2652 11.01 10C11.01 9.73478 10.9046 9.48043 10.7171 9.29289C10.5296 9.10536 10.2752 9 10.01 9ZM7.01 9H7C6.74512 9.00028 6.49997 9.09788 6.31463 9.27285C6.1293 9.44782 6.01776 9.68695 6.00283 9.94139C5.98789 10.1958 6.07067 10.4464 6.23426 10.6418C6.39785 10.8373 6.6299 10.9629 6.883 10.993L7.01 11C7.27522 11 7.52957 10.8946 7.71711 10.7071C7.90464 10.5196 8.01 10.2652 8.01 10C8.01 9.73478 7.90464 9.48043 7.71711 9.29289C7.52957 9.10536 7.27522 9 7.01 9ZM13.01 9H13C12.7451 9.00028 12.5 9.09788 12.3146 9.27285C12.1293 9.44782 12.0178 9.68695 12.0028 9.94139C11.9879 10.1958 12.0707 10.4464 12.2343 10.6418C12.3979 10.8373 12.6299 10.9629 12.883 10.993L13.01 11C13.2752 11 13.5296 10.8946 13.7171 10.7071C13.9046 10.5196 14.01 10.2652 14.01 10C14.01 9.73478 13.9046 9.48043 13.7171 9.29289C13.5296 9.10536 13.2752 9 13.01 9Z" fill="#F5F3EE"/>
</svg>
