<svg width="19" height="15" viewBox="0 0 19 15" fill="none" xmlns="http://www.w3.org/2000/svg">
<path d="M1 4.83352C2.00796 3.63217 3.26699 2.66634 4.68846 2.00402C6.10993 1.3417 7.65929 0.998985 9.22749 1C10.7957 1.00102 12.3446 1.34574 13.7652 2.00991C15.1858 2.67407 16.4436 3.64153 17.45 4.84419" stroke="#F5F3EE" stroke-width="2" stroke-linecap="round" stroke-linejoin="round"/>
<path d="M3.57031 7.47955C4.26342 6.65355 5.12916 5.98953 6.10659 5.53422C7.08401 5.07891 8.14936 4.84339 9.22763 4.84424C10.3059 4.84509 11.3709 5.08228 12.3476 5.53913C13.3243 5.99597 14.189 6.66135 14.8808 7.48844M6.1623 10.1818C6.53777 9.73446 7.00672 9.37486 7.53613 9.12827C8.06555 8.88169 8.64257 8.75412 9.22659 8.75454C9.81062 8.75497 10.3875 8.88337 10.9165 9.13072C11.4456 9.37808 11.914 9.73837 12.2888 10.1862" stroke="#F5F3EE" stroke-width="2" stroke-linecap="round" stroke-linejoin="round"/>
<path d="M9.22433 14.0234C9.93395 14.0234 10.5092 13.4481 10.5092 12.7385C10.5092 12.0289 9.93395 11.4536 9.22433 11.4536C8.51471 11.4536 7.93945 12.0289 7.93945 12.7385C7.93945 13.4481 8.51471 14.0234 9.22433 14.0234Z" fill="#F5F3EE"/>
</svg>
