<svg width="18" height="18" viewBox="0 0 18 18" fill="none" xmlns="http://www.w3.org/2000/svg">
<path d="M17.625 15.75H12.375C12.2755 15.75 12.1802 15.7895 12.1098 15.8598C12.0395 15.9302 12 16.0255 12 16.125V16.875C12 17.1734 12.1185 17.4595 12.3295 17.6705C12.5405 17.8815 12.8266 18 13.125 18H16.875C17.1734 18 17.4595 17.8815 17.6705 17.6705C17.8815 17.4595 18 17.1734 18 16.875V16.125C18 16.0255 17.9605 15.9302 17.8902 15.8598C17.8198 15.7895 17.7245 15.75 17.625 15.75ZM16.875 8.625H8.8125C8.76277 8.625 8.71508 8.60525 8.67992 8.57008C8.64475 8.53492 8.625 8.48723 8.625 8.4375V7.6875C8.625 7.63777 8.64475 7.59008 8.67992 7.55492C8.71508 7.51975 8.76277 7.5 8.8125 7.5H12C12.3978 7.5 12.7794 7.34196 13.0607 7.06066C13.342 6.77936 13.5 6.39782 13.5 6V1.5C13.5 1.10218 13.342 0.720644 13.0607 0.43934C12.7794 0.158035 12.3978 0 12 0L3.75 0C3.35218 0 2.97064 0.158035 2.68934 0.43934C2.40804 0.720644 2.25 1.10218 2.25 1.5V6C2.25 6.39782 2.40804 6.77936 2.68934 7.06066C2.97064 7.34196 3.35218 7.5 3.75 7.5H6.9375C6.98723 7.5 7.03492 7.51975 7.07008 7.55492C7.10525 7.59008 7.125 7.63777 7.125 7.6875V8.4375C7.125 8.48723 7.10525 8.53492 7.07008 8.57008C7.03492 8.60525 6.98723 8.625 6.9375 8.625H1.125C0.826631 8.625 0.540483 8.74353 0.329505 8.9545C0.118526 9.16548 0 9.45163 0 9.75L0 17.25C0 17.4489 0.0790176 17.6397 0.21967 17.7803C0.360322 17.921 0.551088 18 0.75 18C0.948912 18 1.13968 17.921 1.28033 17.7803C1.42098 17.6397 1.5 17.4489 1.5 17.25V11.625C1.5 11.5255 1.53951 11.4302 1.60984 11.3598C1.68016 11.2895 1.77554 11.25 1.875 11.25H17.625C17.7245 11.25 17.8198 11.2105 17.8902 11.1402C17.9605 11.0698 18 10.9745 18 10.875V9.75C18 9.45163 17.8815 9.16548 17.6705 8.9545C17.4595 8.74353 17.1734 8.625 16.875 8.625ZM3.75 1.5H12V6H3.75V1.5Z" fill="#F5F3EE"/>
</svg>
