<svg width="18" height="18" viewBox="0 0 18 18" fill="none" xmlns="http://www.w3.org/2000/svg">
<path d="M2.57143 0C1.15313 0 0 1.15313 0 2.57143V15.4286C0 16.8469 1.15313 18 2.57143 18H15.4286C16.8469 18 18 16.8469 18 15.4286V2.57143C18 1.15313 16.8469 0 15.4286 0H2.57143ZM7.71429 9H9.64286C10.354 9 10.9286 8.42545 10.9286 7.71429C10.9286 7.00312 10.354 6.42857 9.64286 6.42857H7.71429V9ZM9.64286 11.5714H7.71429V12.8571C7.71429 13.5683 7.13973 14.1429 6.42857 14.1429C5.71741 14.1429 5.14286 13.5683 5.14286 12.8571V5.46429C5.14286 4.57634 5.86205 3.85714 6.75 3.85714H9.64286C11.7723 3.85714 13.5 5.58482 13.5 7.71429C13.5 9.84375 11.7723 11.5714 9.64286 11.5714Z" fill="#0D2D4A"/>
</svg>
