<svg width="15" height="16" viewBox="0 0 15 16" fill="none" xmlns="http://www.w3.org/2000/svg">
<path d="M1.49688 0.45C1.47188 0.19375 1.25625 0 1 0C0.74375 0 0.528125 0.19375 0.5 0.446875L0.059375 4.67812C0.01875 4.86562 0 5.05625 0 5.24687C0 6.68125 1.09687 7.85938 2.5 7.9875V15C2.5 15.5531 2.94688 16 3.5 16C4.05312 16 4.5 15.5531 4.5 15V7.9875C5.90312 7.85938 7 6.68125 7 5.24687C7 5.05625 6.98125 4.86562 6.94063 4.67812L6.49687 0.446875C6.47187 0.19375 6.25625 0 6 0C5.74375 0 5.52813 0.19375 5.50313 0.45L5.07812 4.68437C5.05937 4.8625 4.90937 5 4.73125 5C4.55 5 4.4 4.8625 4.38125 4.68125L3.99687 0.45625C3.975 0.196875 3.75938 0 3.5 0C3.24062 0 3.025 0.196875 3.00313 0.45625L2.61875 4.68125C2.60313 4.8625 2.45 5 2.26875 5C2.0875 5 1.9375 4.8625 1.92188 4.68437L1.49688 0.45ZM13.5 0C13 0 9.5 1 9.5 5.5V9C9.5 10.1031 10.3969 11 11.5 11H12.5V15C12.5 15.5531 12.9469 16 13.5 16C14.0531 16 14.5 15.5531 14.5 15V1C14.5 0.446875 14.0531 0 13.5 0Z" fill="#0D2D4A"/>
</svg>
