<svg width="18" height="16" viewBox="0 0 18 16" fill="none" xmlns="http://www.w3.org/2000/svg">
<path fill-rule="evenodd" clip-rule="evenodd" d="M5.97086 0C5.33571 0 4.806 0.339429 4.45757 0.798429C4.09565 1.29256 3.9039 1.89083 3.91114 2.50329C3.91114 3.14614 4.10786 3.75043 4.45757 4.20943C4.806 4.66843 5.33571 5.00657 5.97086 5.00657C6.60471 5.00657 7.13443 4.66843 7.48414 4.20943C7.84633 3.71494 8.0381 3.11618 8.03057 2.50329C8.03057 1.86171 7.83257 1.25614 7.48414 0.798429C7.13443 0.339429 6.60471 0 5.97086 0ZM11.286 0C10.6521 0 10.1224 0.339429 9.77271 0.798429C9.41079 1.29256 9.21904 1.89083 9.22629 2.50329C9.22629 3.14614 9.42428 3.75043 9.77271 4.20943C10.1224 4.66843 10.6521 5.00657 11.286 5.00657C11.9211 5.00657 12.4509 4.66843 12.8006 4.20943C13.1503 3.75043 13.347 3.14614 13.347 2.50329C13.347 1.86171 13.149 1.25614 12.8006 0.798429C12.4509 0.339429 11.9211 0 11.286 0ZM15.1251 4.725C13.8214 4.725 12.9934 5.98757 12.9934 7.22829C12.9934 8.469 13.8214 9.73286 15.1251 9.73286C16.4289 9.73286 17.2569 8.47029 17.2569 7.22829C17.2569 5.98629 16.4289 4.725 15.1251 4.725ZM2.13171 4.725C0.828 4.725 0 5.98629 0 7.22829C0 8.47029 0.828 9.73286 2.13171 9.73286C3.43543 9.73286 4.26343 8.47029 4.26343 7.22829C4.26343 5.98629 3.43414 4.72629 2.13171 4.72629M8.62843 7.10357C7.12929 7.10357 6.021 7.90714 5.31257 8.90357C4.61443 9.88329 4.26343 11.0996 4.26343 12.0883C4.26343 13.2454 4.959 14.049 5.80757 14.5311C6.64329 15.0043 7.69114 15.2126 8.62843 15.2126C9.567 15.2126 10.6123 15.0043 11.448 14.5311C12.2966 14.049 12.9934 13.2454 12.9934 12.0883C12.9934 11.0996 12.6424 9.88329 11.943 8.90229C11.2359 7.90714 10.1276 7.10229 8.62843 7.10229" fill="#0D2D4A"/>
</svg>
