<svg width="14" height="16" viewBox="0 0 14 16" fill="none" xmlns="http://www.w3.org/2000/svg">
<path d="M13.7485 4.28648C13.9725 4.42311 14.0676 4.68035 13.948 4.89205C13.7584 5.22837 13.353 5.49011 12.8858 5.49011C12.5813 5.49011 12.3036 5.38001 12.0948 5.20985C11.9903 5.12521 11.8521 5.07805 11.7084 5.07805C11.5647 5.07805 11.4264 5.12521 11.3219 5.20985C11.1098 5.38672 10.8267 5.48704 10.531 5.49011C10.2355 5.48729 9.95262 5.38692 9.74114 5.20985C9.63649 5.12529 9.49816 5.07819 9.3544 5.07819C9.21065 5.07819 9.07232 5.12529 8.96767 5.20985C8.75556 5.38672 8.47245 5.48704 8.17669 5.49011C7.9597 5.49011 7.75787 5.43206 7.58346 5.33797V8.99391C7.58346 9.12664 7.522 9.25393 7.41261 9.34779C7.30322 9.44165 7.15485 9.49438 7.00014 9.49438C6.84544 9.49438 6.69707 9.44165 6.58768 9.34779C6.47828 9.25393 6.41683 9.12664 6.41683 8.99391V5.33897C6.23938 5.43711 6.03296 5.48972 5.82185 5.49061C5.52669 5.48716 5.24429 5.38687 5.03262 5.21035C4.92774 5.12598 4.78936 5.07902 4.64559 5.07902C4.50182 5.07902 4.36344 5.12598 4.25856 5.21035C4.05032 5.37951 3.77266 5.49061 3.46817 5.49061C3.17281 5.48728 2.89017 5.38699 2.67836 5.21035C2.57348 5.12598 2.4351 5.07902 2.29133 5.07902C2.14756 5.07902 2.00918 5.12598 1.9043 5.21035C1.69606 5.37951 1.4184 5.49061 1.11449 5.49061C0.646089 5.49061 0.241852 5.22837 0.0522747 4.89205C-0.0678883 4.67985 0.0277752 4.42311 0.250602 4.28648L6.64607 0.102555C6.74771 0.036032 6.87201 0 6.99985 0C7.12769 0 7.25199 0.036032 7.35363 0.102555L13.7485 4.28648ZM11.0828 9.99434C11.3922 9.99434 11.6889 10.0998 11.9077 10.2875C12.1265 10.4752 12.2494 10.7298 12.2494 10.9953C12.2494 11.2608 12.1265 11.5153 11.9077 11.7031C11.6889 11.8908 11.3922 11.9962 11.0828 11.9962H8.5051L11.5348 15.1832C11.6326 15.2861 11.6788 15.4181 11.6631 15.5501C11.6475 15.6822 11.5713 15.8035 11.4514 15.8874C11.3315 15.9713 11.1777 16.0109 11.0238 15.9974C10.8699 15.984 10.7285 15.9187 10.6307 15.8158L6.99956 11.9962L3.36842 15.8158C3.26832 15.9121 3.12877 15.9716 2.97884 15.9818C2.82892 15.992 2.68018 15.9522 2.56363 15.8706C2.44707 15.7891 2.37169 15.6721 2.35318 15.544C2.33467 15.416 2.37447 15.2867 2.46428 15.1832L5.49402 11.9962H2.91635C2.60694 11.9962 2.31021 11.8908 2.09142 11.7031C1.87263 11.5153 1.74972 11.2608 1.74972 10.9953C1.74972 10.7298 1.87263 10.4752 2.09142 10.2875C2.31021 10.0998 2.60694 9.99434 2.91635 9.99434H11.0828Z" fill="#0D2D4A"/>
</svg>
