<svg width="18" height="22" viewBox="0 0 18 22" fill="none" xmlns="http://www.w3.org/2000/svg">
<mask id="mask0_5001_25861" style="mask-type:luminance" maskUnits="userSpaceOnUse" x="0" y="0" width="18" height="22">
<path d="M16 1H2C1.44772 1 1 1.44772 1 2V20C1 20.5523 1.44772 21 2 21H16C16.5523 21 17 20.5523 17 20V2C17 1.44772 16.5523 1 16 1Z" stroke="white" stroke-width="2"/>
<path d="M1 5C1 5.26522 1.10536 5.51957 1.29289 5.70711C1.48043 5.89464 1.73478 6 2 6H16C16.2652 6 16.5196 5.89464 16.7071 5.70711C16.8946 5.51957 17 5.26522 17 5V2C17 1.73478 16.8946 1.48043 16.7071 1.29289C16.5196 1.10536 16.2652 1 16 1H2C1.73478 1 1.48043 1.10536 1.29289 1.29289C1.10536 1.48043 1 1.73478 1 2V5Z" fill="white" stroke="white" stroke-width="2"/>
<path d="M4 4.5C4.55228 4.5 5 4.05228 5 3.5C5 2.94772 4.55228 2.5 4 2.5C3.44772 2.5 3 2.94772 3 3.5C3 4.05228 3.44772 4.5 4 4.5Z" fill="black"/>
<path d="M7 4.5C7.55228 4.5 8 4.05228 8 3.5C8 2.94772 7.55228 2.5 7 2.5C6.44772 2.5 6 2.94772 6 3.5C6 4.05228 6.44772 4.5 7 4.5Z" fill="black"/>
<path d="M9 17C10.933 17 12.5 15.433 12.5 13.5C12.5 11.567 10.933 10 9 10C7.067 10 5.5 11.567 5.5 13.5C5.5 15.433 7.067 17 9 17Z" fill="white" stroke="white" stroke-width="2"/>
</mask>
<g mask="url(#mask0_5001_25861)">
<path d="M-3 -1H21V23H-3V-1Z" fill="#0D2D4A"/>
</g>
</svg>
