<svg width="24" height="24" viewBox="0 0 24 24" fill="none" xmlns="http://www.w3.org/2000/svg">
<path d="M3.59961 9.43362C4.60757 8.23226 5.8666 7.26644 7.28807 6.60412C8.70954 5.9418 10.2589 5.59908 11.8271 5.6001C13.3953 5.60112 14.9442 5.94584 16.3648 6.61C17.7854 7.27417 19.0432 8.24163 20.0496 9.44429" stroke="#0D2D4A" stroke-width="2" stroke-linecap="round" stroke-linejoin="round"/>
<path d="M6.16992 12.0796C6.86303 11.2536 7.72877 10.5896 8.7062 10.1343C9.68362 9.67901 10.749 9.44349 11.8272 9.44434C12.9055 9.44519 13.9705 9.68238 14.9472 10.1392C15.9239 10.5961 16.7886 11.2615 17.4804 12.0885M8.76191 14.7819C9.13738 14.3346 9.60633 13.975 10.1357 13.7284C10.6652 13.4818 11.2422 13.3542 11.8262 13.3546C12.4102 13.3551 12.9871 13.4835 13.5161 13.7308C14.0452 13.9782 14.5136 14.3385 14.8884 14.7863" stroke="#0D2D4A" stroke-width="2" stroke-linecap="round" stroke-linejoin="round"/>
<path d="M11.8239 18.6235C12.5336 18.6235 13.1088 18.0482 13.1088 17.3386C13.1088 16.629 12.5336 16.0537 11.8239 16.0537C11.1143 16.0537 10.5391 16.629 10.5391 17.3386C10.5391 18.0482 11.1143 18.6235 11.8239 18.6235Z" fill="#0D2D4A"/>
</svg>
