<svg width="1920" height="159" viewBox="0 0 1920 159" fill="none" xmlns="http://www.w3.org/2000/svg">
<path d="M-12.9187 154.695C-11.6396 156.066 -10.3604 157.437 -9.08132 158.808C19.141 133.674 49.5097 110.45 81.0773 89.2519C144.666 47.7921 216.672 7.71411 292.56 12.4543C385.435 16.3954 418.907 143.209 525.212 139.755C625.548 137.007 652.698 12.4423 740.169 14.4888C833.202 9.21004 858.592 142.824 964.688 147.76C966.833 147.815 969.008 147.811 971.214 147.748C1075.56 144.031 1097.74 12.6857 1187.64 14.4922C1282.3 9.20748 1305.77 151.057 1415.15 149.693C1519.04 146.893 1542.08 19.9045 1632.2 11.3737C1704.74 3.11469 1775.37 39.7603 1837.4 77.8897C1869.53 98.2537 1900.35 120.744 1929.12 145.345C1930.37 143.949 1931.63 142.554 1932.88 141.158C1904.13 115.744 1873.57 92.7232 1841.4 71.6557C1779.14 32.3702 1708.77 -6.51437 1630.8 1.12942C1531.91 12.5082 1506.24 138.491 1414.85 136.81C1319.28 141.649 1297.47 -0.171 1187.36 0.0109859C1082.94 2.62145 1060.29 134.073 970.786 132.755C968.847 132.81 966.941 132.813 965.068 132.765C874.165 133.173 847.599 -1.59716 739.831 0.0143709C638.523 2.67217 612.799 127.377 524.788 126.748C431.037 133.819 395.07 8.24557 293.44 2.04886C212.29 -1.79008 140.668 40.4621 76.914 83.1266C45.3425 105.015 15.2587 128.76 -12.9187 154.695Z" fill="#FFDB8A"/>
</svg>
