<svg width="66" height="153" viewBox="0 0 66 153" fill="none" xmlns="http://www.w3.org/2000/svg">
<circle cx="33" cy="33" r="33" transform="matrix(1 0 0 -1 0 153)" fill="#113E67"/>
<circle cx="10.5" cy="10.5" r="10.5" transform="matrix(1 0 0 -1 22 141)" fill="#0D2D4A"/>
<path d="M20.1831 105C20.1831 110.523 24.6603 115 30.1831 115H37C42.5228 115 47 110.523 47 105L47 7.73836C47 3.46486 43.5356 0.000495136 39.2621 0.000495136C37.4759 0.000495136 35.7447 0.618476 34.3622 1.74958L30.0833 5.2505C27.369 7.47135 26.4512 11.2201 27.8328 14.4436L27.9623 14.7459C29.1861 17.6015 28.4963 20.9174 26.2352 23.0479L24.7628 24.4353C22.3243 26.7329 22.4354 30.6433 25.0003 32.7988C27.6288 35.0077 27.669 39.0401 25.0851 41.301L23.5746 42.6227C20.7027 45.1357 20.873 49.6552 23.9259 51.9449C27.0264 54.2703 27.1445 58.8801 24.1672 61.3611L23.7697 61.6924C20.7409 64.2164 20.6851 68.8499 23.6522 71.4462L24.1843 71.9117C27.3015 74.6393 27.3903 79.4594 24.3757 82.3L22.9478 83.6454C21.1834 85.308 20.1831 87.6249 20.1831 90.0492L20.1831 105Z" fill="#113E67"/>
</svg>
