<svg width="43" height="43" viewBox="0 0 43 43" fill="none" xmlns="http://www.w3.org/2000/svg">
<path d="M21.1672 42.9829C15.733 42.9829 10.2987 42.9829 4.84534 42.9829C1.21614 42.9829 0.00640069 41.7345 0.00640069 38.047C-0.00640074 26.946 7.15336e-08 15.8513 0.0256029 4.76308C0.0256029 1.2868 1.27374 0.019206 4.71093 0C15.9122 0 27.1134 0 38.3147 0C41.7327 0 42.9808 1.2868 43 4.76308C43 15.8513 43 26.946 43 38.047C43 41.6961 41.7327 42.9637 38.1419 42.9829C32.4772 43.0213 26.8318 42.9829 21.1672 42.9829ZM21.34 11.7156C26.4478 11.7156 31.5555 11.7156 36.7017 11.7156C38.6219 11.7156 39.2748 11.2547 39.2556 9.18045C39.2556 8.33539 39.2556 7.4327 39.2556 6.56844C39.2556 4.1869 38.6795 3.64913 36.3945 3.66834C27.2734 3.78357 18.1332 3.66834 9.01221 3.66834C3.69321 3.66834 3.80842 3.66834 3.80842 9.10362C3.80842 11.0242 4.36529 11.7156 6.38151 11.658C11.3357 11.6388 16.2706 11.7156 21.34 11.7348V11.7156ZM13.6591 17.4774C12.5838 17.6695 11.7389 18.2841 11.7389 19.398C11.7146 19.6699 11.7529 19.9437 11.851 20.1985C11.949 20.4533 12.1041 20.6822 12.3043 20.8676C12.5046 21.0531 12.7447 21.1902 13.0062 21.2683C13.2677 21.3465 13.5436 21.3637 13.8127 21.3186C14.0525 21.309 14.2878 21.2511 14.5047 21.1485C14.7216 21.0459 14.9156 20.9006 15.0751 20.7214C15.2346 20.5421 15.3564 20.3325 15.4331 20.1052C15.5098 19.8778 15.54 19.6373 15.5217 19.398C15.4973 18.9088 15.2868 18.4474 14.9334 18.1082C14.5801 17.769 14.1105 17.5777 13.6207 17.5734L13.6591 17.4774ZM23.529 19.302C23.4538 18.8328 23.2239 18.4022 22.876 18.0786C22.5281 17.755 22.0821 17.5569 21.6088 17.5158C21.3566 17.5083 21.1055 17.5505 20.8696 17.64C20.6337 17.7295 20.4178 17.8646 20.2341 18.0376C20.0505 18.2106 19.9027 18.4181 19.7992 18.6482C19.6957 18.8783 19.6386 19.1266 19.631 19.3788C19.6234 19.631 19.6656 19.8823 19.7551 20.1182C19.8446 20.3541 19.9797 20.5701 20.1527 20.7537C20.3256 20.9374 20.5331 21.0853 20.7632 21.1888C20.9932 21.2923 21.2414 21.3495 21.4936 21.357C22.6073 21.4146 23.2026 20.608 23.4906 19.398L23.529 19.302ZM7.76407 27.3109C7.53364 26.2545 6.93837 25.3903 5.84385 25.3903C5.59169 25.3978 5.34348 25.455 5.1134 25.5585C4.88333 25.662 4.67589 25.8099 4.50293 25.9935C4.15362 26.3645 3.96597 26.8591 3.98124 27.3685C3.99652 27.8779 4.21348 28.3603 4.5844 28.7097C4.95531 29.0591 5.44979 29.2467 5.95907 29.2315C6.44811 29.2021 6.90742 28.9868 7.24298 28.6298C7.57853 28.2727 7.76495 27.8009 7.76407 27.3109ZM21.628 29.2315C22.6649 28.9626 23.5482 28.3864 23.3946 27.3109C23.3966 27.038 23.3404 26.7679 23.2298 26.5185C23.1193 26.2691 22.9568 26.0461 22.7533 25.8643C22.5499 25.6826 22.31 25.5464 22.0497 25.4646C21.7895 25.3829 21.5148 25.3575 21.244 25.3903C20.9979 25.4108 20.7588 25.4821 20.5418 25.5997C20.3247 25.7174 20.1343 25.8787 19.9828 26.0737C19.8312 26.2686 19.7217 26.4928 19.6611 26.7322C19.6006 26.9716 19.5903 27.221 19.631 27.4645C19.6409 27.7168 19.7004 27.9647 19.8062 28.1939C19.9119 28.4232 20.0618 28.6293 20.2473 28.8005C20.4328 28.9718 20.6502 29.1048 20.8871 29.1919C21.124 29.279 21.3758 29.3186 21.628 29.3083V29.2315ZM7.76407 34.9932C7.76407 34.4839 7.56176 33.9954 7.20165 33.6352C6.84154 33.275 6.35312 33.0727 5.84385 33.0727C5.59928 33.0513 5.35293 33.0812 5.12054 33.1604C4.88815 33.2395 4.67481 33.3663 4.49414 33.5326C4.31346 33.6988 4.16941 33.9009 4.07119 34.1259C3.97296 34.351 3.92271 34.594 3.92364 34.8396C3.90342 35.097 3.93921 35.3557 4.02856 35.5979C4.11791 35.84 4.25869 36.06 4.4412 36.2425C4.62371 36.4251 4.84361 36.5659 5.08575 36.6553C5.3279 36.7446 5.58654 36.7804 5.84385 36.7602C6.30411 36.7661 6.75118 36.6065 7.10363 36.3104C7.45608 36.0143 7.69046 35.6014 7.76407 35.1469V34.9932ZM31.2867 19.3788C31.2867 18.8694 31.0844 18.3809 30.7243 18.0207C30.3642 17.6606 29.8757 17.4582 29.3665 17.4582C28.8572 17.4582 28.3688 17.6606 28.0087 18.0207C27.6486 18.3809 27.4463 18.8694 27.4463 19.3788C27.4463 19.8882 27.6486 20.3767 28.0087 20.7369C28.3688 21.0971 28.8572 21.2994 29.3665 21.2994C30.4994 21.3954 31.0947 20.5888 31.2867 19.5325V19.3788ZM39.1212 19.3788C39.1227 18.895 38.9416 18.4284 38.6141 18.0723C38.2866 17.7162 37.8368 17.4969 37.3546 17.4582C37.1024 17.4456 36.8502 17.4828 36.6124 17.5677C36.3746 17.6525 36.1559 17.7834 35.9687 17.9528C35.7814 18.1223 35.6294 18.3269 35.5213 18.5551C35.4131 18.7833 35.351 19.0306 35.3383 19.2828C35.3257 19.535 35.3629 19.7872 35.4478 20.0251C35.5326 20.2629 35.6635 20.4817 35.8329 20.669C36.0023 20.8562 36.2069 21.0083 36.435 21.1165C36.6632 21.2246 36.9104 21.2868 37.1625 21.2994C38.2763 21.4531 38.8715 20.6464 39.1212 19.6093V19.3788ZM11.7197 27.0612C11.9309 28.1175 12.4878 28.9818 13.6399 28.9818C14.1492 28.9818 14.6376 28.7794 14.9977 28.4193C15.3578 28.0591 15.5601 27.5706 15.5601 27.0612C15.5601 26.5518 15.3578 26.0633 14.9977 25.7031C14.6376 25.3429 14.1492 25.1406 13.6399 25.1406C13.3613 25.1398 13.0858 25.1996 12.8327 25.316C12.5795 25.4323 12.3547 25.6024 12.1738 25.8144C11.9929 26.0264 11.8603 26.2752 11.7852 26.5435C11.7101 26.8119 11.6943 27.0934 11.7389 27.3685L11.7197 27.0612ZM31.2675 26.9268C30.9795 25.8896 30.4034 25.1214 29.3473 25.1598C28.838 25.1929 28.3627 25.427 28.026 25.8106C27.6893 26.1942 27.5188 26.6959 27.5519 27.2052C27.585 27.7146 27.819 28.19 28.2025 28.5267C28.5861 28.8635 29.0876 29.0341 29.5969 29.001C30.0399 28.9486 30.4509 28.7437 30.7592 28.4212C31.0676 28.0988 31.2541 27.679 31.2867 27.234L31.2675 26.9268ZM37.393 29.2891C38.4107 29.001 39.1788 28.4248 39.1212 27.3685C39.083 26.8591 38.844 26.3858 38.4569 26.0526C38.0698 25.7194 37.5662 25.5537 37.0569 25.5919C36.5477 25.6301 36.0744 25.8691 35.7413 26.2563C35.4082 26.6435 35.2425 27.1472 35.2807 27.6566C35.3524 28.1495 35.6128 28.5954 36.0069 28.9C36.401 29.2046 36.898 29.3441 37.393 29.2891ZM13.7551 33.2455C13.2714 33.244 12.8049 33.4251 12.4489 33.7527C12.0929 34.0803 11.8736 34.5302 11.8349 35.0125C11.8 35.2781 11.8247 35.5483 11.9071 35.8032C11.9896 36.0582 12.1277 36.2916 12.3116 36.4865C12.4954 36.6815 12.7204 36.833 12.9701 36.9302C13.2197 37.0273 13.4879 37.0677 13.7551 37.0483C14.003 37.0517 14.2489 37.0034 14.4771 36.9065C14.7053 36.8096 14.9108 36.6663 15.0806 36.4857C15.2504 36.305 15.3807 36.091 15.4633 35.8572C15.5458 35.6234 15.5788 35.3749 15.5601 35.1277C15.5513 34.6443 15.3606 34.1821 15.026 33.8332C14.6914 33.4843 14.2376 33.2744 13.7551 33.2455ZM23.3562 35.1661C23.3562 34.6567 23.1539 34.1682 22.7938 33.808C22.4337 33.4479 21.9453 33.2455 21.436 33.2455C20.9267 33.2455 20.4383 33.4479 20.0782 33.808C19.7181 34.1682 19.5158 34.6567 19.5158 35.1661C19.5158 35.6755 19.7181 36.164 20.0782 36.5242C20.4383 36.8844 20.9267 37.0867 21.436 37.0867C22.6649 37.0483 23.2602 36.2416 23.4522 35.1661H23.3562ZM31.1907 35.3198C31.2233 34.8255 31.0637 34.3377 30.7452 33.9583C30.4268 33.579 29.9741 33.3373 29.4817 33.2839C29.2397 33.2432 28.9918 33.2529 28.7537 33.3123C28.5156 33.3717 28.2922 33.4796 28.0976 33.6291C27.903 33.7787 27.7413 33.9668 27.6227 34.1817C27.504 34.3966 27.4309 34.6336 27.4079 34.878C27.3501 35.1434 27.3529 35.4184 27.4161 35.6825C27.4793 35.9466 27.6012 36.193 27.7729 36.4035C27.9445 36.6139 28.1614 36.7829 28.4074 36.8979C28.6534 37.0129 28.9222 37.0708 29.1937 37.0675C30.4034 37.1827 30.9795 36.3377 31.2867 35.339L31.1907 35.3198Z" fill="#0D2D4A"/>
</svg>
