<?xml version="1.0" ?><svg xmlns="http://www.w3.org/2000/svg" id="MASTER" viewBox="0 0 24 24"><path d="M23.6362,6.6846c-.3623-2.1602-2.0654-3.8291-4.2441-4.1543-4.9033-.7041-9.8589-.708-14.814,.0098C2.418,2.8501,.7202,4.5195,.3525,6.7007c-.2339,1.4502-.3525,2.897-.3525,4.2993,0,1.4609,.1226,2.9141,.3638,4.3154,.3623,2.1602,2.0654,3.8291,4.2427,4.1543,.5969,.0867,1.171,.153,1.7382,.2161,1.5822,1.4233,3.3179,2.6663,5.1929,3.6848,.6968,.3784,1.4531,.5649,2.1943,.5649,.9287,0,1.834-.293,2.5698-.8696,.1382-.1074,.2734-.2266,.4517-.4058,.7941-.818,1.1171-1.9242,1.0098-3.0081,.5547-.061,1.1115-.1103,1.6587-.1921,2.1602-.3101,3.8579-1.9795,4.2256-4.1606,.2339-1.4502,.3525-2.897,.3525-4.2993,0-1.4609-.1226-2.9141-.3638-4.3154ZM4.8633,4.5195c4.77-.6904,9.5366-.6851,14.2393-.0103,.2653,.0396,.5146,.1201,.7524,.2217l-5.7319,5.7319c-1.1318,1.1309-3.1143,1.1309-4.2461,0l-2.2881-2.2881-.7935-.7935-2.6536-2.6536c.2287-.0955,.4677-.1718,.7215-.2082Zm-1.9138,1.8441c-.1686,.0463-.3345,.0979-.4967,.1677,.0552-.1608,.1242-.3142,.2034-.461l.2933,.2933Zm-.5383,8.9193c.4494,.629,.9191,1.2428,1.4208,1.8315-.6903-.3938-1.2047-1.0441-1.4208-1.8315Zm12.8817,6.0101c-.0723,.0718-.146,.1372-.2227,.1973-.686,.5386-1.7227,.5874-2.5781,.1226-2.1279-1.1553-4.0742-2.6089-5.7852-4.3198-1.6904-1.6904-3.1299-3.6108-4.2783-5.7085-.4917-.8979-.4595-1.9648,.0825-2.6567,.0586-.0747,.124-.1484,.2222-.2466,.334-.3242,.7744-.4844,1.2256-.4844,.5059,0,1.0249,.2017,1.4224,.5986l.7935,.7935c.4199,.4204,.5645,1.0312,.3765,1.5947-.4292,1.2866-.0996,2.6821,.8599,3.6416l1.7637,1.7637c.96,.9595,2.355,1.2891,3.6416,.8599,.5645-.189,1.1743-.0435,1.5947,.3765l.7935,.7935c.751,.7515,.8022,1.9395,.0884,2.6743Zm6.3813-6.3193c-.2217,1.3135-1.2412,2.3208-2.5425,2.5073-.691,.1033-1.3904,.174-2.0868,.2421-.1285-.1802-.2648-.3569-.4264-.5184l-.7935-.7935c-.9595-.96-2.3564-1.2896-3.6416-.8599-.5654,.1885-1.1743,.0435-1.5947-.3765l-1.7637-1.7637c-.4103-.4108-.5526-1.003-.3837-1.5556l.0214,.0214c.9751,.9751,2.2563,1.4629,3.5371,1.4629s2.562-.4878,3.5371-1.4629l5.8016-5.8016c.1561,.2892,.2691,.606,.3258,.9442,.2227,1.2939,.3354,2.6328,.3354,3.9805,0,1.2959-.1099,2.6353-.3257,3.9736Z"/></svg>