<svg xmlns="http://www.w3.org/2000/svg" version="1.1" xmlns:xlink="http://www.w3.org/1999/xlink" width="1000" height="1000"><g clip-path="url(#SvgjsClipPath1136)"><rect width="1000" height="1000" fill="#ffffff"></rect><g transform="matrix(6.896551724137931,0,0,6.896551724137931,5.684341886080802e-14,293.1034482758621)"><svg xmlns="http://www.w3.org/2000/svg" version="1.1" xmlns:xlink="http://www.w3.org/1999/xlink" width="145" height="60"><svg width="145" height="60" viewBox="0 0 145 60" fill="none" xmlns="http://www.w3.org/2000/svg">
<path d="M2.64 31.632C2.64 29.744 2.976 27.792 3.648 25.776C4.32 23.76 5.12 22.128 6.048 20.88C7.008 19.6 8.144 18.432 9.456 17.376C10.768 16.288 12.448 15.424 14.496 14.784C16.544 14.144 18.816 13.824 21.312 13.824C26.112 13.824 30.144 15.328 33.408 18.336C36.704 21.312 38.352 25.44 38.352 30.72C38.352 35.968 36.608 40.256 33.12 43.584C29.632 46.912 25.424 48.576 20.496 48.576C15.6 48.576 11.392 46.992 7.872 43.824C4.384 40.656 2.64 36.592 2.64 31.632ZM21.84 17.616C17.776 17.616 14.448 18.816 11.856 21.216C9.264 23.616 7.968 26.848 7.968 30.912C7.968 34.976 9.12 38.272 11.424 40.8C13.76 43.328 16.88 44.592 20.784 44.592C24.72 44.592 27.904 43.312 30.336 40.752C32.8 38.16 34.032 34.912 34.032 31.008C34.032 27.104 32.816 23.904 30.384 21.408C27.984 18.88 25.136 17.616 21.84 17.616ZM42.8888 45.648L44.6168 45.84C45.8968 45.84 47.0488 45.568 48.0728 45.024C49.0968 44.448 49.6088 43.632 49.6088 42.576C49.6088 42.192 49.5288 41.792 49.3688 41.376C49.2408 40.928 48.7288 40.304 47.8328 39.504C46.9688 38.672 46.1688 37.728 45.4328 36.672C44.6968 35.616 44.3288 34.432 44.3288 33.12C44.3288 31.84 44.9048 30.496 46.0568 29.088C46.6008 28.416 47.4168 27.856 48.5048 27.408C49.5928 26.928 50.6488 26.688 51.6728 26.688C52.7288 26.688 53.3688 26.816 53.5928 27.072C53.8488 27.296 53.9448 27.632 53.8808 28.08L53.4968 29.472C53.0168 29.344 52.4568 29.28 51.8168 29.28C51.2088 29.28 50.5688 29.536 49.8968 30.048C49.2248 30.528 48.8888 31.152 48.8888 31.92C48.8888 32.688 49.1768 33.472 49.7528 34.272C50.3288 35.04 50.9688 35.712 51.6728 36.288C52.3768 36.864 53.0168 37.648 53.5928 38.64C54.1688 39.632 54.4568 40.704 54.4568 41.856C54.4568 44.064 53.4808 45.744 51.5288 46.896C49.5768 48.016 47.2568 48.576 44.5688 48.576C43.8648 48.576 43.3528 48.432 43.0328 48.144C42.7128 47.888 42.5527 47.472 42.5527 46.896C42.5527 46.288 42.6648 45.872 42.8888 45.648ZM77.2538 36.144C77.2538 36.144 73.5898 36.16 66.2618 36.192C65.0778 36.192 64.3898 36.288 64.1978 36.48C64.0378 36.704 63.9578 37.072 63.9578 37.584C63.9578 40.08 64.6618 42 66.0698 43.344C67.5098 44.656 69.1418 45.312 70.9658 45.312C72.7898 45.312 74.2138 45.072 75.2378 44.592C75.2698 44.592 75.5898 44.384 76.1978 43.968C76.8058 43.552 77.2218 43.344 77.4458 43.344C77.7018 43.344 77.8938 43.44 78.0218 43.632C78.1498 43.824 78.2138 44.016 78.2138 44.208C78.2138 45.424 77.3178 46.464 75.5258 47.328C73.7338 48.16 71.6378 48.576 69.2378 48.576C66.8698 48.576 64.5978 47.616 62.4218 45.696C60.2778 43.776 59.2058 41.184 59.2058 37.92C59.2058 34.656 60.2138 31.968 62.2298 29.856C64.2778 27.744 67.0138 26.688 70.4378 26.688C72.9338 26.688 74.9498 27.424 76.4858 28.896C78.1178 30.432 78.9338 32.288 78.9338 34.464C78.9338 35.584 78.3738 36.144 77.2538 36.144ZM64.7738 33.792C70.8538 33.792 74.3738 33.76 75.3338 33.696C75.2378 32.416 74.7418 31.36 73.8458 30.528C72.9818 29.696 71.8778 29.28 70.5338 29.28C69.1898 29.28 67.9258 29.76 66.7418 30.72C65.5898 31.648 64.9338 32.672 64.7738 33.792ZM84.8858 31.728L84.7898 21.936C84.7898 21.296 84.7898 20.688 84.7898 20.112C84.8218 19.504 84.8378 18.976 84.8378 18.528V16.272C84.8378 14.832 84.9338 13.856 85.1258 13.344C85.3498 12.832 85.9738 12.576 86.9978 12.576C88.0538 12.576 88.7098 12.656 88.9658 12.816C89.2218 12.944 89.3498 13.264 89.3498 13.776L89.3978 31.488L89.4458 42.048C89.4458 43.008 89.7338 43.776 90.3098 44.352C90.8858 44.928 91.5418 45.216 92.2778 45.216C93.0138 45.216 93.7498 45.136 94.4858 44.976C95.2538 44.784 95.7338 44.688 95.9258 44.688C96.3418 44.688 96.5498 44.944 96.5498 45.456C96.5498 46.544 95.7978 47.344 94.2938 47.856C93.2378 48.176 92.1018 48.336 90.8858 48.336C89.7018 48.336 88.7418 48.128 88.0058 47.712C87.2698 47.296 86.6938 46.784 86.2778 46.176C85.8938 45.568 85.5898 44.704 85.3658 43.584C85.0458 42.016 84.8858 39.744 84.8858 36.768V31.728ZM109.761 39.936C110.273 39.424 110.705 38.816 111.057 38.112L111.729 36.768C111.857 36.576 112.465 35.424 113.553 33.312C115.825 28.896 117.217 26.688 117.729 26.688C118.049 26.688 118.481 26.832 119.025 27.12C119.601 27.408 119.921 27.664 119.985 27.888C119.985 28.048 118.337 31.264 115.041 37.536C111.777 43.776 110.017 47.152 109.761 47.664C106.017 55.44 103.825 59.328 103.185 59.328C102.673 59.328 102.113 59.184 101.505 58.896C100.897 58.64 100.561 58.4 100.497 58.176C100.497 57.984 100.737 57.36 101.217 56.304C101.569 55.664 102.065 54.784 102.705 53.664C104.209 51.04 105.105 49.376 105.393 48.672C105.713 48 106.033 47.392 106.353 46.848C106.705 46.272 107.009 45.744 107.265 45.264C107.521 44.784 107.649 44.464 107.649 44.304C107.649 44.144 107.249 43.552 106.449 42.528C105.681 41.504 104.913 40.448 104.145 39.36C103.377 38.24 102.529 36.992 101.601 35.616C100.673 34.24 100.081 33.36 99.8254 32.976L98.7214 31.296C97.6654 29.728 97.1374 28.768 97.1374 28.416C97.1374 28.032 97.5054 27.648 98.2414 27.264C98.9774 26.88 99.5214 26.688 99.8734 26.688C100.225 26.688 100.705 27.008 101.313 27.648C101.921 28.256 102.625 29.136 103.425 30.288C104.225 31.408 104.961 32.48 105.633 33.504C106.305 34.528 107.073 35.728 107.937 37.104C108.801 38.48 109.409 39.424 109.761 39.936ZM137.171 48.048C136.211 48.048 135.763 47.52 135.827 46.464C135.827 46.112 135.779 45.936 135.683 45.936C135.427 46.032 134.915 46.304 134.147 46.752C130.339 49.088 126.995 49.232 124.115 47.184C122.803 46.256 122.146 44.976 122.146 43.344C122.146 40.88 123.283 39.088 125.555 37.968C127.859 36.848 130.707 36.288 134.099 36.288C134.707 36.288 135.155 36.304 135.443 36.336C135.443 35.792 135.459 35.408 135.491 35.184C135.491 33.36 134.979 32 133.955 31.104C132.963 30.176 131.571 29.712 129.779 29.712C128.915 29.712 127.987 29.84 126.995 30.096C126.003 30.352 125.363 30.48 125.075 30.48C124.787 30.48 124.547 30.304 124.355 29.952C124.195 29.6 124.115 29.136 124.115 28.56C124.115 27.984 124.819 27.536 126.227 27.216C127.667 26.864 129.043 26.688 130.355 26.688C133.459 26.688 135.811 27.504 137.411 29.136C139.043 30.768 139.859 33.152 139.859 36.288V46.176C139.859 47.04 139.699 47.568 139.379 47.76C139.059 47.952 138.323 48.048 137.171 48.048ZM135.395 43.008C135.459 42.112 135.491 41.152 135.491 40.128C135.491 39.104 135.475 38.528 135.443 38.4C131.027 38.816 128.339 39.616 127.379 40.8C126.867 41.408 126.611 42.112 126.611 42.912C126.611 44.608 127.875 45.456 130.403 45.456C131.683 45.456 132.819 45.168 133.811 44.592C134.835 43.984 135.363 43.456 135.395 43.008Z" fill="#FF9839"></path>
</svg></svg></g></g><defs><clipPath id="SvgjsClipPath1136"><rect width="1000" height="1000" x="0" y="0" rx="350" ry="350"></rect></clipPath></defs></svg>