<svg xmlns="http://www.w3.org/2000/svg" version="1.1" xmlns:xlink="http://www.w3.org/1999/xlink" width="1000" height="1000"><g clip-path="url(#SvgjsClipPath1033)"><rect width="1000" height="1000" fill="#ffffff"></rect><g transform="matrix(15.625,0,0,15.625,0,78.125)"><svg xmlns="http://www.w3.org/2000/svg" version="1.1" xmlns:xlink="http://www.w3.org/1999/xlink" width="64" height="54"><svg width="64" height="54" viewBox="0 0 64 54" fill="none" xmlns="http://www.w3.org/2000/svg">
<path d="M40.6191 32.026C40.6191 30.9351 40.7766 29.8442 41.1702 28.7533C41.5638 27.6624 42.0361 26.7273 42.5084 26.026C43.0595 25.3247 43.6893 24.7013 44.3977 24.0779C45.1062 23.4546 46.0509 22.987 47.2317 22.6753C48.4125 22.2857 49.672 22.1299 51.089 22.1299C53.7655 22.1299 56.0484 22.987 57.9377 24.6234C59.827 26.2598 60.6929 28.5974 60.6929 31.5585C60.6929 34.5195 59.6696 36.9351 57.7016 38.7273C55.7335 40.5974 53.3719 41.5325 50.6167 41.5325C47.8615 41.5325 45.4998 40.6753 43.4531 38.8831C41.6425 37.0909 40.6191 34.8312 40.6191 32.026ZM45.8147 26.1818C44.319 27.5065 43.6105 29.2987 43.6105 31.6364C43.6105 33.8961 44.2403 35.7662 45.5786 37.1688C46.9168 38.5714 48.6487 39.2727 50.8528 39.2727C53.057 39.2727 54.8676 38.5714 56.2846 37.0909C57.7016 35.6883 58.3313 33.8182 58.3313 31.6364C58.3313 29.4546 57.6228 27.6624 56.2846 26.2598C54.9463 24.8572 53.2932 24.1559 51.4826 24.1559C49.1997 24.1559 47.3104 24.8572 45.8147 26.1818Z" fill="#F49640"></path>
<path d="M40.3829 24.5451C41.0126 23.688 41.8786 22.8309 42.7445 22.0516C43.6891 21.2724 44.87 20.727 46.2869 20.2594C47.7039 19.7919 49.357 19.5581 51.0889 19.5581C52.3484 19.5581 53.4505 19.714 54.5526 19.9477V18.3893C54.5526 16.7529 53.608 15.1945 51.9548 14.2594L34.3214 4.12955C32.1959 2.96072 29.4407 2.96072 27.3152 4.12955L9.68177 14.2594C8.10735 15.2724 7.08398 16.7529 7.08398 18.4672V44.9607C7.08398 47.7659 9.83921 50.0257 13.2242 50.0257H48.4911C51.8761 50.0257 54.6313 47.7659 54.6313 44.9607V43.3244C53.3718 43.714 52.0336 43.9477 50.6166 43.9477C47.1529 43.9477 44.1615 42.8568 41.7211 40.5971C39.2808 38.4153 38.0213 35.5322 38.0213 32.0257C38.0213 30.701 38.2574 29.2984 38.7297 27.8958C39.1233 26.5711 39.7531 25.4023 40.3829 24.5451ZM23.8515 33.1166H18.3411V27.662H23.8515V33.1166ZM23.8515 26.5711H18.3411V21.1166H23.8515V26.5711ZM30.3853 33.1166H24.8749V27.662H30.3853V33.1166ZM30.3853 26.5711H24.8749V21.1166H30.3853V26.5711Z" fill="#F49640"></path>
<path d="M36.8406 40.7533L34.0853 35.1429C33.8492 34.5975 34.1641 33.9741 34.8726 33.6624C35.5023 33.3507 36.1321 33.5845 36.3683 34.052L36.5257 34.7533C36.5257 35.2209 36.5257 35.7663 36.6831 36.1559L36.8406 36.7014C36.998 37.091 37.1555 37.4027 37.3129 37.7144L37.6278 38.1819C37.8639 38.4936 38.1788 38.8053 38.4937 39.117L38.966 39.7404C39.2022 40.2858 39.2022 40.9092 38.4937 41.2209C37.8639 41.4546 37.0767 41.2988 36.8406 40.7533Z" fill="#142D49"></path>
<path d="M18.2641 46.208C17.713 45.1171 18.1854 43.7145 19.2875 43.1691L33.1423 36.4678L35.1891 40.5197L21.3342 47.221C20.2321 47.8444 18.8151 47.3769 18.2641 46.208Z" fill="#142D49"></path>
</svg></svg></g></g><defs><clipPath id="SvgjsClipPath1033"><rect width="1000" height="1000" x="0" y="0" rx="350" ry="350"></rect></clipPath></defs></svg>