<svg width="187" height="85" viewBox="0 0 187 85" fill="none" xmlns="http://www.w3.org/2000/svg">
<path d="M59.3262 51.2228C59.3262 49.4906 59.5734 47.7584 60.1913 46.0263C60.8093 44.2941 61.5509 42.8094 62.2925 41.6958C63.1576 40.5823 64.1464 39.5925 65.2588 38.6027C66.3711 37.6129 67.8543 36.8705 69.7082 36.3756C71.5621 35.757 73.5397 35.5095 75.7644 35.5095C79.9666 35.5095 83.5509 36.8705 86.5172 39.4688C89.4835 42.067 90.843 45.7788 90.843 50.4804C90.843 55.182 89.2363 59.0175 86.1464 61.8632C83.0565 64.8327 79.3486 66.3174 75.0228 66.3174C70.697 66.3174 66.9891 64.9564 63.7756 62.1107C60.8093 59.265 59.3262 55.6769 59.3262 51.2228ZM67.4835 42.067C65.1352 44.1704 64.0228 47.0161 64.0228 50.7279C64.0228 54.3159 65.0116 57.2854 67.1127 59.5124C69.2138 61.7395 71.9329 62.853 75.3936 62.853C78.8543 62.853 81.697 61.7395 83.9217 59.3887C86.1464 57.1616 87.1352 54.1922 87.1352 50.7279C87.1352 47.2635 86.0228 44.4178 83.9217 42.1907C81.8206 39.9637 79.225 38.8501 76.3823 38.8501C72.6745 38.8501 69.7082 39.8399 67.4835 42.067Z" fill="#F49640"/>
<path d="M96.034 62.358L97.5171 62.4818C98.6295 62.4818 99.6182 62.2343 100.607 61.7394C101.472 61.2445 101.967 60.5021 101.967 59.6361C101.967 59.2649 101.843 58.8937 101.719 58.5225C101.596 58.1513 101.101 57.5327 100.36 56.9141C99.6182 56.1717 98.8767 55.3056 98.2587 54.4395C97.6407 53.4497 97.2699 52.4599 97.2699 51.2227C97.2699 50.1091 97.7643 48.8719 98.7531 47.6346C99.2474 47.016 99.989 46.5211 100.978 46.1499C101.967 45.7787 102.832 45.5312 103.82 45.5312C104.809 45.5312 105.304 45.655 105.551 45.9024C105.798 46.1499 105.798 46.3973 105.798 46.7685L105.427 48.0058C105.056 47.8821 104.562 47.8821 103.944 47.8821C103.45 47.8821 102.832 48.1295 102.214 48.5007C101.596 48.8719 101.349 49.4905 101.349 50.1091C101.349 50.8515 101.596 51.4701 102.09 52.2125C102.585 52.9548 103.202 53.4497 103.82 54.0684C104.438 54.5633 105.056 55.3056 105.551 56.1717C106.045 57.0378 106.292 58.0276 106.292 59.0174C106.292 60.997 105.427 62.4818 103.697 63.4716C101.967 64.4614 99.8654 64.9563 97.5171 64.9563C96.8991 64.9563 96.4048 64.8326 96.1576 64.5851C95.9104 64.3377 95.7868 63.9665 95.7868 63.4716C95.6632 62.8529 95.7868 62.4818 96.034 62.358Z" fill="#F49640"/>
<path d="M126.439 53.8211H116.674C115.562 53.8211 115.068 53.9448 114.821 54.0685C114.697 54.316 114.573 54.5634 114.573 55.0583C114.573 57.2854 115.191 59.0176 116.427 60.1311C117.663 61.3684 119.146 61.8633 120.753 61.8633C122.36 61.8633 123.596 61.6158 124.585 61.2446C124.585 61.2446 124.955 61.1209 125.45 60.7497C125.944 60.3786 126.315 60.2548 126.562 60.2548C126.809 60.2548 126.933 60.3786 127.056 60.5023C127.18 60.626 127.18 60.8735 127.18 60.9972C127.18 62.1107 126.439 62.9768 124.832 63.7192C123.225 64.4615 121.371 64.8327 119.27 64.8327C117.169 64.8327 115.191 63.9666 113.214 62.2344C111.236 60.5023 110.371 58.2752 110.371 55.3058C110.371 52.4601 111.236 49.9855 113.09 48.1296C114.944 46.2738 117.292 45.2839 120.382 45.2839C122.607 45.2839 124.337 45.9026 125.697 47.2636C127.18 48.6246 127.922 50.233 127.922 52.2126C127.922 53.3262 127.427 53.8211 126.439 53.8211ZM115.439 51.7177C120.877 51.7177 123.967 51.7177 124.832 51.594C124.708 50.4804 124.337 49.4906 123.472 48.7483C122.607 48.0059 121.742 47.6347 120.506 47.6347C119.27 47.6347 118.158 48.0059 117.169 48.872C116.18 49.8618 115.562 50.7279 115.439 51.7177Z" fill="#F49640"/>
<path d="M133.235 49.9854L133.112 41.3246C133.112 40.7059 133.112 40.211 133.112 39.7161C133.112 39.2212 133.112 38.7263 133.112 38.3551V36.3755C133.112 35.1383 133.235 34.2722 133.359 33.7773C133.483 33.2824 134.101 33.0349 134.966 33.0349C135.831 33.0349 136.449 33.1586 136.696 33.2824C136.943 33.4061 137.067 33.6535 137.067 34.1484V49.8617V59.2649C137.067 60.131 137.314 60.7496 137.809 61.3682C138.303 61.8631 138.921 62.1106 139.539 62.1106C140.157 62.1106 140.898 61.9869 141.516 61.8632C142.134 61.7394 142.629 61.6157 142.752 61.6157C143.123 61.6157 143.247 61.8632 143.247 62.3581C143.247 63.3479 142.629 64.0902 141.269 64.4614C140.28 64.7089 139.292 64.8326 138.303 64.8326C137.191 64.8326 136.325 64.7089 135.707 64.3377C135.089 63.9665 134.595 63.4716 134.224 62.9767C133.853 62.4818 133.606 61.6157 133.359 60.6259C133.112 59.2649 132.988 57.1615 132.988 54.5633V49.9854H133.235Z" fill="#F49640"/>
<path d="M155.36 57.2852C155.854 56.7903 156.225 56.2954 156.472 55.6768L157.09 54.4395C157.214 54.3158 157.708 53.2022 158.697 51.3463C160.675 47.3871 161.91 45.4075 162.405 45.4075C162.652 45.4075 163.023 45.5312 163.517 45.7786C164.012 46.0261 164.259 46.2736 164.382 46.3973C164.382 46.521 162.899 49.3667 160.057 54.9344C157.09 60.5021 155.607 63.4715 155.36 63.9664C152.023 70.8951 150.045 74.3594 149.551 74.3594C149.057 74.3594 148.562 74.2357 148.068 73.9883C147.573 73.7408 147.203 73.4934 147.203 73.3696C147.203 73.2459 147.45 72.6273 147.821 71.7612C148.191 71.1426 148.562 70.4002 149.18 69.4104C150.54 67.0596 151.281 65.5749 151.528 64.9562C151.776 64.3376 152.023 63.8427 152.394 63.3478C152.641 62.8529 153.012 62.358 153.135 61.9868C153.382 61.6156 153.506 61.2444 153.506 61.1207C153.506 60.997 153.135 60.5021 152.517 59.5123C151.776 58.6462 151.158 57.6564 150.416 56.6666C149.675 55.6768 148.933 54.5632 148.191 53.326C147.326 52.0887 146.832 51.3463 146.585 50.9752L145.596 49.4904C144.607 48.1294 144.236 47.2634 144.236 46.8922C144.236 46.521 144.607 46.2736 145.225 45.9024C145.843 45.5312 146.337 45.4075 146.708 45.4075C147.079 45.4075 147.45 45.6549 147.944 46.2736C148.439 46.7685 149.057 47.6345 149.798 48.6244C150.54 49.6142 151.158 50.604 151.776 51.4701C152.394 52.3361 153.012 53.4497 153.877 54.6869C154.495 55.9242 154.989 56.7903 155.36 57.2852Z" fill="#F49640"/>
<path d="M179.585 64.4613C178.719 64.4613 178.349 63.9664 178.349 63.1003C178.349 62.7292 178.349 62.6054 178.225 62.6054C177.978 62.7292 177.484 62.9766 176.866 63.3478C173.528 65.4511 170.562 65.5749 167.967 63.719C166.854 62.8529 166.236 61.7393 166.236 60.2546C166.236 58.0276 167.225 56.4191 169.326 55.4293C171.304 54.4395 173.899 53.9446 176.866 53.9446C177.36 53.9446 177.854 53.9446 178.102 53.9446C178.102 53.4497 178.102 53.0785 178.102 52.9548C178.102 51.3463 177.607 50.1091 176.742 49.3667C175.877 48.5006 174.641 48.1295 173.034 48.1295C172.293 48.1295 171.427 48.2532 170.562 48.5006C169.697 48.7481 169.079 48.8718 168.832 48.8718C168.585 48.8718 168.337 48.7481 168.214 48.3769C168.09 48.0057 167.967 47.6345 167.967 47.1396C167.967 46.6447 168.585 46.2736 169.821 45.9024C171.057 45.6549 172.293 45.4075 173.405 45.4075C176.124 45.4075 178.225 46.1498 179.708 47.6345C181.191 49.1193 181.809 51.2226 181.809 53.9446V62.7292C181.809 63.4715 181.686 63.9664 181.439 64.0901C181.315 64.3376 180.573 64.4613 179.585 64.4613ZM177.978 60.0072C177.978 59.2648 178.102 58.3987 178.102 57.4089C178.102 56.5428 178.102 56.0479 178.102 55.9242C174.146 56.2954 171.798 57.0377 170.933 58.0276C170.439 58.5225 170.191 59.1411 170.191 59.8835C170.191 61.3682 171.304 62.1105 173.528 62.1105C174.641 62.1105 175.63 61.8631 176.618 61.3682C177.607 60.8733 177.978 60.3784 177.978 60.0072Z" fill="#F49640"/>
<path d="M58.8311 39.3449C59.8199 37.9839 61.1794 36.6229 62.539 35.3857C64.0221 34.1484 65.8761 33.2823 68.1008 32.5399C70.3255 31.7976 72.921 31.4264 75.6401 31.4264C77.6177 31.4264 79.348 31.6739 81.0783 32.045V29.5705C81.0783 26.9723 79.5952 24.4977 76.9997 23.013L49.4379 7.05232C46.1008 5.19643 41.775 5.19643 38.4379 7.05232L10.7525 23.1367C8.15697 24.6215 6.67383 27.096 6.67383 29.6942V71.7612C6.67383 76.2153 10.9997 79.8034 16.3143 79.8034H71.6851C76.9997 79.8034 81.3255 76.2153 81.3255 71.7612V69.2867C79.348 69.9053 77.2469 70.2765 75.0221 70.2765C69.5839 70.2765 64.8873 68.5443 61.0559 64.9562C57.2244 61.4919 55.2469 56.914 55.2469 51.3464C55.2469 49.243 55.6176 47.0159 56.3592 44.7889C56.9772 42.5618 57.8424 40.7059 58.8311 39.3449ZM32.8761 52.9548H24.2244V44.2939H32.8761V52.9548ZM32.8761 42.6855H24.2244V34.0247H32.8761V42.6855ZM43.2581 52.9548H34.6064V44.2939H43.2581V52.9548ZM43.2581 42.6855H34.6064V34.0247H43.2581V42.6855Z" fill="#F49640"/>
<g filter="url(#filter0_d_4017_1935)">
<path d="M53.3929 65.0801L49.067 56.1719C48.6963 55.3058 49.1906 54.316 50.303 53.821C51.2918 53.3261 52.2805 53.6973 52.6513 54.4397L52.8985 55.5532C52.8985 56.2956 52.8985 57.1617 53.1457 57.7803L53.3929 58.6464C53.6401 59.265 53.8873 59.7599 54.1345 60.2548L54.6288 60.9972C54.9996 61.4921 55.494 61.987 55.9884 62.4819L56.73 63.4717C57.1008 64.3378 57.1008 65.3276 55.9884 65.8225C54.876 66.1937 53.7637 65.9462 53.3929 65.0801Z" fill="#F5F3EE"/>
</g>
<g filter="url(#filter1_d_4017_1935)">
<path d="M24.2238 73.8647C23.3587 72.1326 24.1002 69.9055 25.8306 69.0394L47.5834 58.3989L50.7969 64.8327L29.0441 75.4732C27.1901 76.3392 25.089 75.5969 24.2238 73.8647Z" fill="#F5F3EE"/>
</g>
<defs>
<filter id="filter0_d_4017_1935" x="47.0453" y="53.5957" width="11.8059" height="16.2938" filterUnits="userSpaceOnUse" color-interpolation-filters="sRGB">
<feFlood flood-opacity="0" result="BackgroundImageFix"/>
<feColorMatrix in="SourceAlpha" type="matrix" values="0 0 0 0 0 0 0 0 0 0 0 0 0 0 0 0 0 0 127 0" result="hardAlpha"/>
<feOffset dy="2"/>
<feGaussianBlur stdDeviation="0.95"/>
<feComposite in2="hardAlpha" operator="out"/>
<feColorMatrix type="matrix" values="0 0 0 0 0 0 0 0 0 0 0 0 0 0 0 0 0 0 0.25 0"/>
<feBlend mode="normal" in2="BackgroundImageFix" result="effect1_dropShadow_4017_1935"/>
<feBlend mode="normal" in="SourceGraphic" in2="effect1_dropShadow_4017_1935" result="shape"/>
</filter>
<filter id="filter1_d_4017_1935" x="21.9613" y="58.3989" width="30.7355" height="21.337" filterUnits="userSpaceOnUse" color-interpolation-filters="sRGB">
<feFlood flood-opacity="0" result="BackgroundImageFix"/>
<feColorMatrix in="SourceAlpha" type="matrix" values="0 0 0 0 0 0 0 0 0 0 0 0 0 0 0 0 0 0 127 0" result="hardAlpha"/>
<feOffset dy="2"/>
<feGaussianBlur stdDeviation="0.95"/>
<feComposite in2="hardAlpha" operator="out"/>
<feColorMatrix type="matrix" values="0 0 0 0 0 0 0 0 0 0 0 0 0 0 0 0 0 0 0.25 0"/>
<feBlend mode="normal" in2="BackgroundImageFix" result="effect1_dropShadow_4017_1935"/>
<feBlend mode="normal" in="SourceGraphic" in2="effect1_dropShadow_4017_1935" result="shape"/>
</filter>
</defs>
</svg>
