<svg width="79" height="74" viewBox="0 0 79 74" fill="none" xmlns="http://www.w3.org/2000/svg">
<rect x="1.5" y="1.5" width="76" height="71" rx="18.5" stroke="#FF9839" stroke-width="3"/>
<path d="M48.6211 42.026C48.6211 40.9351 48.7785 39.8442 49.1721 38.7533C49.5657 37.6624 50.0381 36.7273 50.5104 36.026C51.0614 35.3247 51.6912 34.7013 52.3997 34.0779C53.1082 33.4546 54.0528 32.987 55.2336 32.6753C56.4145 32.2857 57.674 32.1299 59.091 32.1299C61.7675 32.1299 64.0504 32.987 65.9397 34.6234C67.829 36.2598 68.6949 38.5974 68.6949 41.5585C68.6949 44.5195 67.6715 46.9351 65.7035 48.7273C63.7355 50.5974 61.3739 51.5325 58.6186 51.5325C55.8634 51.5325 53.5018 50.6753 51.455 48.8831C49.6445 47.0909 48.6211 44.8312 48.6211 42.026ZM53.8167 36.1818C52.321 37.5065 51.6125 39.2987 51.6125 41.6364C51.6125 43.8961 52.2423 45.7662 53.5805 47.1688C54.9188 48.5714 56.6506 49.2727 58.8548 49.2727C61.059 49.2727 62.8696 48.5714 64.2865 47.0909C65.7035 45.6883 66.3333 43.8182 66.3333 41.6364C66.3333 39.4546 65.6248 37.6624 64.2865 36.2598C62.9483 34.8572 61.2951 34.1559 59.4846 34.1559C57.2017 34.1559 55.3124 34.8572 53.8167 36.1818Z" fill="#F49640"/>
<path d="M48.3848 34.5456C49.0146 33.6885 49.8805 32.8313 50.7465 32.0521C51.6911 31.2729 52.8719 30.7274 54.2889 30.2599C55.7059 29.7924 57.359 29.5586 59.0909 29.5586C60.3504 29.5586 61.4525 29.7145 62.5546 29.9482V28.3898C62.5546 26.7534 61.6099 25.195 59.9568 24.2599L42.3233 14.13C40.1979 12.9612 37.4426 12.9612 35.3172 14.13L17.6837 24.2599C16.1093 25.2729 15.0859 26.7534 15.0859 28.4677V54.9612C15.0859 57.7664 17.8412 60.0261 21.2262 60.0261H56.4931C59.8781 60.0261 62.6333 57.7664 62.6333 54.9612V53.3248C61.3738 53.7145 60.0355 53.9482 58.6185 53.9482C55.1548 53.9482 52.1634 52.8573 49.7231 50.5976C47.2827 48.4158 46.0232 45.5326 46.0232 42.0261C46.0232 40.7015 46.2594 39.2989 46.7317 37.8963C47.1253 36.5716 47.7551 35.4028 48.3848 34.5456ZM31.8535 43.1171H26.343V37.6625H31.8535V43.1171ZM31.8535 36.5716H26.343V31.1171H31.8535V36.5716ZM38.3873 43.1171H32.8768V37.6625H38.3873V43.1171ZM38.3873 36.5716H32.8768V31.1171H38.3873V36.5716Z" fill="#F49640"/>
<path d="M44.8406 50.7533L42.0853 45.1429C41.8492 44.5975 42.1641 43.9741 42.8726 43.6624C43.5023 43.3507 44.1321 43.5845 44.3683 44.052L44.5257 44.7533C44.5257 45.2209 44.5257 45.7663 44.6831 46.1559L44.8406 46.7014C44.998 47.091 45.1555 47.4027 45.3129 47.7144L45.6278 48.1819C45.8639 48.4936 46.1788 48.8053 46.4937 49.117L46.966 49.7404C47.2022 50.2858 47.2022 50.9092 46.4937 51.2209C45.8639 51.4546 45.0767 51.2988 44.8406 50.7533Z" fill="#FFEDC3"/>
<path d="M26.2621 56.208C25.7111 55.1171 26.1834 53.7145 27.2855 53.1691L41.1404 46.4678L43.1871 50.5197L29.3322 57.221C28.2302 57.8444 26.8132 57.3769 26.2621 56.208Z" fill="#FFEDC3"/>
</svg>
