<svg width="260" height="159" viewBox="0 0 260 159" fill="none" xmlns="http://www.w3.org/2000/svg">
<g clip-path="url(#clip0_405_8016)">
<path opacity="0.99" d="M157.631 0.0197198C157.054 0.0417316 156.828 0.588314 156.6 0.795034C156.358 1.01555 156.172 1.40152 155.747 1.29124C155.322 1.18104 154.959 1.95221 154.716 2.22784C154.473 2.50347 153.926 2.5 153.562 2.44494C153.198 2.38907 152.957 2.38911 152.592 2.38911C152.228 2.38911 151.015 2.11272 150.469 1.83707C149.923 1.56147 148.833 1.50834 148.53 1.50834C148.226 1.50834 147.924 1.56209 147.499 1.39669C147.074 1.23132 147.007 1.17684 146.461 1.45253C145.915 1.7281 146.161 2.83437 146.222 3.22026C146.283 3.60615 146.522 3.71168 145.976 3.8219C145.43 3.93217 144.884 5.48078 144.884 5.70129C144.884 5.92181 144.526 6.24916 144.283 6.4146C144.04 6.57996 143.369 6.3594 142.883 6.4146C142.398 6.46968 142.218 6.85636 141.975 6.96662C141.732 7.07688 141.185 7.02176 140.76 6.96662C140.335 6.9115 140.213 6.41726 140.152 6.14168C140.091 5.86599 139.909 5.75091 139.606 5.75091C139.302 5.75091 138.029 5.70129 136.998 5.70129C135.966 5.70129 134.508 5.75504 133.597 5.58964C132.687 5.42427 132.2 6.35813 131.836 6.79914C131.472 7.24019 131.169 6.85704 130.805 6.52623C130.441 6.19549 129.228 6.14099 128.743 6.08585C128.257 6.03073 128.14 6.57864 128.019 6.79914C127.898 7.01969 127.35 7.02243 127.35 7.02243L127.336 7.14648C127.295 7.46719 127.153 7.76406 126.927 7.87841C126.654 8.01618 126.651 8.04039 126.742 8.34359C126.833 8.6468 125.465 9.00726 125.465 9.00726V9.0879C125.496 9.41868 125.59 9.86393 125.165 9.91905C124.74 9.97417 124.557 10.0831 124.284 10.5517C124.011 11.0203 123.979 11.2099 123.827 11.265C123.675 11.3202 123.463 11.4325 123.615 11.6806C123.767 11.9287 123.648 12.1506 123.526 12.2884C123.405 12.4263 123.494 12.398 123.13 12.4807C122.766 12.5634 122.917 12.702 123.069 12.7846C123.221 12.8673 123.406 12.8405 123.315 13.0886C123.224 13.3366 123.252 13.7468 122.857 13.8019C122.463 13.857 122.25 13.8592 122.311 14.4655H122.099C122.045 14.4953 121.992 14.5434 121.935 14.5896C121.905 14.817 121.853 15.0393 121.799 15.123C121.685 15.1989 121.567 15.293 121.464 15.3897C121.458 15.4505 121.455 15.509 121.464 15.5696C121.53 16.005 121.797 16.164 121.888 16.2023C121.736 16.1472 121.738 16.9473 122.072 17.0024C122.406 17.0575 122.557 17.1954 122.557 17.4986C122.557 17.8018 122.494 18.2133 122.646 18.3236C122.797 18.4337 122.951 18.6813 122.83 18.7639C122.709 18.8466 122.556 18.6833 122.495 18.9314C122.435 19.1795 122.4 19.1754 122.673 19.3408C122.946 19.5061 123.073 19.7853 123.165 20.1161C123.256 20.4469 123.28 20.3911 123.219 20.5565C123.158 20.7219 123.193 20.6957 123.253 20.9162C123.314 21.1368 123.281 21.1891 123.281 21.1891C123.281 21.1891 123.129 21.6006 123.007 21.766C122.886 21.9314 122.284 22.318 122.284 22.318C122.284 22.318 122.243 22.3387 122.222 22.349L122.209 22.3613L122.086 22.566C122.081 22.594 122.068 22.6189 122.072 22.6529L122.011 22.6777C121.768 22.3469 120.675 21.6322 119.826 21.3565C118.727 20.9999 119.156 20.4729 119.095 19.7563C119.034 19.0396 117.762 18.2697 116.548 17.9389C115.335 17.6082 113.088 18.5461 112.663 18.9871C112.239 19.4282 111.446 18.7101 111.264 18.3793C111.082 18.0485 110.781 17.9375 109.871 17.8273C108.961 17.717 107.563 19.4241 107.563 19.6446C107.563 19.8651 107.141 19.7549 106.655 19.6446C106.17 19.5344 106.05 19.8142 105.686 19.9796C105.321 20.1449 105.077 19.5908 105.016 19.2601C104.956 18.9293 104.837 18.7059 104.655 18.5406C104.472 18.3752 104.347 17.2173 104.347 17.0519C104.347 16.8865 103.988 16.5047 103.685 16.3945C103.382 16.2842 103.375 15.5088 103.193 15.1229C103.011 14.737 102.647 14.9044 102.101 14.7942C101.555 14.6839 101.436 15.0699 101.254 15.2904C101.072 15.5109 100.771 15.8996 99.8 16.0099C98.829 16.1202 97.7979 17.879 97.6765 18.5406C97.5551 19.2021 97.3692 18.9844 96.8231 18.7638C96.2769 18.5433 95.8527 16.7782 95.792 16.227C95.7314 15.6758 94.7587 15.786 94.0305 15.7308C93.3022 15.6757 92.8219 16.2829 92.8219 16.2829C92.3365 16.5034 92.4562 16.3924 91.6066 15.7308C90.757 15.0693 91.1218 14.9617 91.1218 14.9617C91.1218 14.9617 91.1582 14.8903 91.1969 14.8067C91.2041 14.7906 91.2036 14.7679 91.2106 14.7508C91.2337 14.6943 91.2617 14.643 91.272 14.5772C91.3005 14.3847 91.2373 14.1864 90.876 14.1864C90.5413 14.1864 90.2369 14.3813 89.9065 14.6578C89.5177 14.9827 89.093 15.4253 88.5682 15.8425C87.5973 16.6143 87.7237 16.1719 87.3597 15.7308C86.9956 15.2898 86.3863 14.9589 85.5367 14.7384C84.687 14.5179 84.8091 15.0679 85.0519 15.6192C85.2946 16.1704 85.1755 16.5041 84.69 16.8349C84.2045 17.1656 84.0822 17.4978 82.9899 16.9465C81.8975 16.3953 83.2289 15.5096 83.2289 15.1788C83.2289 15.0081 82.6888 14.8115 82.1569 14.6578H82.1296C81.637 14.5163 81.16 14.4097 81.16 14.4097C81.16 14.4097 80.6775 14.1906 80.3134 14.5213C80.256 14.5735 80.1898 14.6214 80.1154 14.6578H80.1086C79.7096 14.8466 79.0823 14.8303 78.3743 14.7384C78.2229 14.7188 78.114 14.6908 78.0125 14.6578H77.9783C77.7576 14.5805 77.6569 14.4651 77.6164 14.3291C77.5974 14.2622 77.5943 14.1841 77.6029 14.1058C77.6107 14.0262 77.6262 13.9465 77.6507 13.8577C77.7721 13.4166 77.5269 13.4159 76.9201 13.3056C76.3132 13.1954 76.5567 12.0954 76.4353 11.5441C76.314 10.9928 74.6152 11.4338 73.7656 11.5441C72.916 11.6543 71.5798 11.2083 70.9731 10.6571C70.3662 10.1058 70.2416 10.44 69.6348 10.44C69.028 10.44 68.3041 10.329 67.8186 9.88801C67.3331 9.44694 65.0222 9.44484 64.1725 9.22432C63.3228 9.00381 62.841 8.4552 62.841 8.4552C62.841 8.4552 62.4752 7.90521 61.6257 7.57443C60.7761 7.24366 60.8958 7.57086 60.4103 6.7991C59.9248 6.02734 58.9582 7.24088 58.5941 7.35114C58.23 7.4614 57.1389 7.02239 56.5321 7.02239C55.9253 7.02239 54.2227 7.02041 53.009 6.91077C51.7952 6.80049 51.1889 6.47238 50.3392 6.14164C49.4896 5.81083 47.9098 6.14165 46.9391 6.58202C45.9681 7.02239 42.9333 7.13267 42.5693 7.02239C42.2051 6.9122 40.9928 6.8019 40.5072 7.02239C40.0218 7.24291 39.4193 6.90938 38.6911 6.7991C37.9628 6.6889 37.1086 8.89706 37.2299 9.00722C37.3513 9.11748 36.3839 9.88801 35.8985 9.88801C35.413 9.88801 34.8045 10.2161 34.6831 10.6571C34.5618 11.0981 33.8356 11.542 33.2288 11.8728C32.622 12.2035 32.2577 11.9837 32.1364 11.4324C32.015 10.8812 31.1622 11.0989 30.7981 11.2092C30.434 11.3194 30.1918 11.4303 29.2209 10.7688C28.2499 10.1072 27.8857 11.6551 28.1284 12.0961C28.3712 12.5371 27.6436 12.8653 27.6436 12.8653C27.6436 12.8653 27.6125 12.9231 27.5822 13.3366C27.5518 13.7501 27.8546 13.7743 28.067 13.8018C28.2793 13.8294 28.004 14.2967 27.8826 14.4345C27.8459 14.4763 27.8789 14.5641 27.9304 14.6578C28.0487 14.874 28.3169 15.1577 28.4015 15.2346C28.5229 15.3449 28.4037 15.5951 28.2513 15.6502C28.0996 15.7053 28.221 15.8411 28.2513 15.9789C28.2817 16.1168 28.2793 16.1995 28.067 16.227C27.8546 16.2546 27.5534 16.5889 27.432 17.0024C27.3106 17.4158 27.6702 17.6598 27.8826 17.6598C28.095 17.6598 28.249 17.8294 28.3401 17.9948C28.4311 18.1602 28.5252 18.6812 28.5859 18.7639C28.6466 18.8466 28.7042 18.9831 28.6132 19.1485C28.5222 19.3139 28.8886 19.5647 29.0707 19.6199C29.2527 19.675 29.5525 20.114 29.5827 20.1967C29.6131 20.2794 30.1616 20.5268 30.3133 20.6371C30.465 20.7473 30.2845 21.0541 30.1631 21.1643C30.0417 21.2746 30.1335 21.4352 30.2246 21.766C30.3156 22.0967 30.462 22.2105 30.6137 22.2932C30.7654 22.3759 30.83 22.7908 30.6479 23.1491C30.4659 23.5074 30.8611 23.8108 30.9824 23.8934C31.1038 23.9761 31.2822 24.2188 31.2214 24.4393C31.1608 24.6598 31.3117 24.7977 31.4331 24.9355C31.5545 25.0733 31.8314 25.4069 32.0134 25.655C32.1956 25.9031 33.1667 26.5399 33.379 26.6226C33.5914 26.7053 33.5633 26.9479 33.2903 27.1684C33.0172 27.389 31.8921 27.1153 31.4672 27.0878C31.0425 27.0602 30.8588 27.3394 30.7981 27.8631C30.7485 28.2901 31.1433 28.3717 31.4058 28.3717C31.4653 28.3717 31.5169 28.3646 31.556 28.3592C31.7684 28.3317 31.647 28.7142 31.556 29.0725C31.4649 29.4309 32.0764 29.566 32.1978 29.5935C32.3192 29.6211 32.3465 29.7631 32.2251 29.9285C32.1037 30.0939 32.3769 30.6453 32.4982 30.9209C32.6196 31.1966 32.6826 31.2248 32.6826 31.2248C32.6826 31.2248 32.6304 31.3666 32.5733 31.5412L32.5869 31.5535C32.5869 31.5535 32.5725 31.5907 32.5459 31.6527C32.4619 31.9469 32.3834 32.3052 32.5527 32.4901C32.8561 32.8208 32.8236 32.9318 32.6415 33.0421C32.4594 33.1523 32.0338 33.4859 31.7607 33.5135C31.4876 33.541 31.0316 33.7616 31.153 34.0097C31.2743 34.2578 31.2137 34.3929 31.153 34.5307C31.0923 34.6685 30.7645 35.3598 30.5522 35.4425C30.3398 35.5252 29.0348 35.3308 28.6404 35.3308C28.2459 35.3308 26.6064 35.2723 26.3941 35.796C26.1817 36.3198 26.1202 36.7368 25.7864 36.8194C25.4527 36.9022 25.3942 36.8429 25.1514 37.2288C24.9087 37.6147 24.1447 38.111 23.9019 38.2213C23.7315 38.2987 23.1317 38.6191 22.7344 38.8725C22.5663 38.9798 22.4311 39.0676 22.3862 39.133C22.2344 39.3535 20.9318 40.2088 20.6587 40.4294C20.3856 40.6499 19.6565 41.3391 19.5048 41.4218C19.3531 41.5045 18.989 41.7774 18.9586 41.9428C18.9283 42.1081 18.7484 42.3005 18.5967 42.3832C18.445 42.4659 17.8054 42.6638 17.3199 43.2701C16.8344 43.8766 15.4369 45.4169 15.2852 45.4721C15.1334 45.5272 14.8308 45.5273 14.8004 45.7202C14.7701 45.9132 14.679 46.3563 14.5273 46.3839C14.3756 46.4114 13.8575 46.4929 13.7967 46.7684C13.7361 47.0441 13.62 47.4335 13.4076 47.5438C13.1952 47.654 12.9478 48.0345 12.7658 48.0896C12.5837 48.1447 12.1899 48.0352 12.0079 48.3935C11.8258 48.7518 11.4965 49.3867 11.011 49.6899C10.5255 49.9931 9.73351 51.04 9.94586 51.3708C10.1583 51.7015 10.4625 52.4204 10.2804 52.7788C10.0984 53.1371 10.1606 53.3577 10.4033 53.5231C10.6461 53.6884 10.8251 53.9325 10.7038 54.4286C10.5824 54.9248 10.5824 55.2005 10.7038 55.4211C10.8251 55.6416 10.8888 56.1689 10.6764 56.4445C10.4641 56.7201 10.222 57.2412 10.1917 57.4617C10.1614 57.6822 10.1272 57.5741 9.88442 57.6292C9.64167 57.6843 9.21833 57.7953 9.18798 58.1812C9.15763 58.5671 9.19104 58.6189 9.70689 58.8945C10.2227 59.1701 10.6135 59.6402 10.7652 59.7505C10.917 59.8607 10.9814 59.9992 11.0725 60.0544C11.1635 60.1095 11.2803 60.4672 11.25 60.7429C11.2196 61.0185 11.3417 61.3493 11.0383 61.2391C10.735 61.1288 10.706 60.9648 10.615 60.8545C10.524 60.7443 10.4011 60.6622 10.219 60.6622C10.037 60.6622 9.15457 60.8001 8.94218 60.6622C8.72978 60.5244 8.34129 59.7498 8.06822 59.6946C7.79513 59.6395 7.45594 59.6706 7.36496 59.9738C7.27392 60.277 7.18665 60.6313 7.12598 60.8793C7.06528 61.1274 7.06141 61.5705 6.81874 61.543C6.57593 61.5154 6.18147 61.4342 5.9994 61.6547C5.81729 61.8752 5.78921 62.4245 5.63751 62.4796C5.59958 62.4933 5.55584 62.5076 5.51461 62.523C5.47019 62.5397 5.43648 62.5601 5.39855 62.5913C5.33066 62.6469 5.27563 62.7362 5.27563 62.8952C5.27563 63.226 5.08976 63.4451 4.96839 63.5279C4.84701 63.6105 4.24536 63.8305 4.3061 64.4644C4.36677 65.0984 4.36068 65.2915 4.08761 65.4568C3.8145 65.6222 3.66732 65.7064 3.63695 66.0647C3.60667 66.423 3.426 67.4679 2.66742 67.5781C1.9088 67.6884 1.87461 68.104 1.81393 68.2418C1.75324 68.3796 1.54309 68.5168 1.17893 68.6822C0.814842 68.8476 0.512801 68.9276 0.482519 69.4513C0.452148 69.975 0.418785 70.1143 0.50983 70.3073C0.600831 70.5002 0.57352 70.532 0.482519 70.6422C0.391474 70.7525 0.205604 70.8035 0.175256 71.0516C0.144907 71.2996 0.113794 71.7725 0.113794 71.8827C0.113794 71.993 -0.187329 72.5981 0.298157 72.5154C0.783642 72.4327 0.935427 72.401 1.1175 72.4286C1.29954 72.4561 1.96714 72.6243 1.66372 72.9C1.3603 73.1756 1.32995 73.6718 1.66372 73.6443C1.99749 73.6167 2.38974 73.4258 2.2987 73.8117C2.20772 74.1976 2.11589 74.3893 2.23726 74.6925C2.35863 74.9957 2.72281 75.5443 2.78348 75.7097C2.84418 75.8751 2.93675 76.1549 3.1795 76.0447C3.42224 75.9344 3.54671 76.0116 3.69841 76.0943C3.85013 76.177 4.18162 76.2362 4.33341 76.1811C4.48509 76.126 4.57694 76.0991 4.66796 76.2369C4.75899 76.3748 4.95831 76.9149 5.09129 76.9813C6.03191 77.4498 5.865 78.2512 5.82185 78.4141C5.63983 79.1032 6.33784 79.2418 6.64119 79.2142C6.94465 79.1866 8.27611 78.7166 8.51885 78.8544C8.7616 78.9923 9.16067 79.4871 9.16067 79.4871C9.16067 79.4871 9.31671 79.8447 9.45425 80.1632H13.4008C13.6419 79.9499 13.9568 79.8263 14.1314 79.8717C14.2878 79.9122 14.4117 80.0568 14.5274 80.1632H64.8283C65.0897 79.6528 65.5856 78.7671 65.8046 78.9661C66.1081 79.2417 66.5937 79.9026 66.8971 79.9027C67.2005 79.9027 67.5093 79.4588 67.3272 79.1832C67.1451 78.9075 66.4746 78.2466 67.0814 78.2466C67.6883 78.2466 68.4174 78.137 68.7815 78.3024C69.1457 78.4678 69.8103 78.7435 70.1744 78.7986C70.5385 78.8538 70.9665 78.6911 70.9665 78.5257C70.9665 78.3603 71.2093 77.9192 71.5127 78.0295C71.8161 78.1397 72.0566 78.4099 72.4208 78.5753C72.7848 78.7407 73.7583 78.8565 74.2438 78.5257C74.7293 78.1949 74.4274 77.8627 74.9129 77.9178C75.3984 77.973 77.0312 78.0845 77.6987 77.0371L78.0947 76.9502C78.4588 76.7848 78.7804 76.6528 78.9141 76.6773C78.9586 76.6854 78.9755 76.7097 78.9755 76.758C78.9755 76.9509 78.7024 77.1177 79.2486 77.3658C79.7948 77.6139 80.1924 77.6677 80.5869 77.5023C80.9813 77.3369 81.432 77.4775 81.5837 77.7256C81.7355 77.9736 82.042 78.3031 82.3758 78.3582C82.7095 78.4134 82.8272 78.7697 82.8879 78.9351C82.9486 79.1004 83.2521 79.9544 84.2534 80.1198C84.3622 80.1377 84.4472 80.1488 84.547 80.1632H256.457C256.652 80.0328 256.98 79.9234 257.154 79.7972C257.457 79.5767 257.275 79.4098 257.154 78.6932C257.032 77.9765 258.001 76.0482 258.608 75.8275C259.215 75.607 259.094 74.6703 258.67 74.3947C258.245 74.119 257.881 74.507 257.639 74.5621C257.396 74.6173 257.095 74.7819 256.792 74.5063C256.488 74.2307 257.151 73.6227 257.454 73.4023C257.758 73.1817 257.335 72.6296 257.092 72.354C256.85 72.0784 256.368 70.4236 256.307 69.8172C256.246 69.2108 255.636 69.3244 255.454 69.1039C255.272 68.8834 255.457 68.5484 256.246 68.2728C257.035 67.9971 256.667 67.2823 256.485 66.9516C256.303 66.6208 255.332 66.8421 254.907 67.0074C254.483 67.1728 254.36 68.4954 253.754 68.9365C253.147 69.3775 252.787 68.4381 253.03 67.7766C253.273 67.115 253.754 65.5738 254.3 65.0226C254.846 64.4713 257.03 64.9151 257.516 64.7497C258.001 64.5843 258.186 63.975 258.308 63.534C258.429 63.093 258.366 62.8724 258.123 62.5416C257.881 62.2108 257.334 62.5987 257.031 62.7091C256.728 62.8192 255.332 62.9261 254.908 62.9261C254.483 62.9261 254.243 62.3224 254.061 62.157C253.879 61.9916 253.394 61.8262 253.03 61.6608C252.666 61.4954 252.6 61.2707 252.6 60.8297C252.6 60.3886 252.846 60.3927 253.392 60.1722C253.938 59.9517 255.759 59.7849 256.123 59.5643C256.487 59.3438 256.181 58.2942 256.423 57.9082C256.666 57.5224 257.699 56.9171 258.185 56.0351C258.67 55.153 258.851 54.8806 259.154 54.3294C259.458 53.7781 258.851 53.5567 258.608 53.2811C258.365 53.0055 257.277 52.2349 256.731 51.4079C256.184 50.581 256.849 50.1391 257.577 49.3673C258.305 48.5955 256.787 48.3763 255.877 48.4866C254.967 48.5968 254.299 49.643 253.692 49.8635C253.085 50.084 252.785 49.971 252.299 49.6402C251.814 49.3095 250.601 48.98 250.176 48.7595C249.751 48.539 249.632 47.7112 249.268 47.215C248.904 46.7189 248.233 46.7767 247.383 46.9421C246.534 47.1075 245.803 46.9399 245.014 46.7746C244.225 46.6092 244.104 45.51 243.921 45.0689C243.739 44.6279 243.437 44.3494 242.952 44.3494C242.466 44.3494 242.405 44.9539 242.344 45.1744C242.284 45.3949 241.013 45.8946 240.467 45.9497C239.92 46.0049 239.922 45.1185 239.497 44.6224C239.072 44.1261 237.737 44.5169 237.312 44.5169C236.887 44.5169 236.462 43.412 236.158 42.8608C235.855 42.3095 235.311 42.8084 235.25 43.0841C235.189 43.3597 234.821 43.4149 234.335 43.5803C233.85 43.7457 233.487 43.5224 233.366 43.357C233.244 43.1916 233.12 42.9732 232.574 43.0283C232.027 43.0834 231.849 42.7532 231.242 42.0917C230.635 41.4301 229.967 41.9263 228.996 42.0917C228.025 42.257 229.12 43.5769 229.18 43.7974C229.241 44.0179 229.544 44.4053 229.119 44.4053C228.694 44.4053 228.149 45.009 227.603 45.1744C227.057 45.3398 226.992 45.3976 226.75 44.9015C226.507 44.4053 226.329 44.2915 226.026 44.1261C225.722 43.9607 225.413 43.1909 224.988 42.805C224.563 42.4191 223.84 42.3646 223.233 42.3646C222.626 42.3646 222.384 41.8118 222.141 41.2605C221.898 40.7093 220.866 39.8862 220.502 39.6107C220.357 39.5004 220.34 39.2115 220.366 38.8787C220.403 38.3801 220.539 37.7912 220.502 37.6258C220.441 37.3502 219.166 37.0731 218.802 37.018C218.438 36.9628 218.376 35.9717 218.194 35.641C218.012 35.3102 217.408 35.5307 216.74 35.641C216.072 35.7512 215.101 36.0221 215.04 36.2426C214.979 36.4632 214.919 36.6334 214.555 36.6334C214.191 36.6334 213.156 36.9608 212.671 37.3467C212.185 37.7326 211.214 37.7906 209.939 38.0662C209.39 38.1853 208.913 38.5174 208.533 38.8787H208.512C208.018 39.3518 207.707 39.8892 207.639 40.1069C207.517 40.4927 207.213 40.6589 206.485 40.6589C205.756 40.6589 206.115 40.379 205.508 39.3315C204.901 38.2841 202.96 39.61 202.292 39.5548C201.964 39.5277 201.745 39.2491 201.521 38.8787C201.291 38.4976 201.053 38.016 200.715 37.6258C200.048 36.854 198.533 36.9063 197.137 36.9063C195.742 36.9063 194.711 38.3412 194.529 38.5066C194.347 38.672 193.251 38.7788 192.644 38.7237C192.038 38.6686 191.979 38.1199 191.736 37.4584C191.494 36.7968 191.007 36.3019 190.582 36.0814C190.158 35.8609 190.158 36.2991 190.098 35.8581C190.037 35.4171 189.731 34.7553 189.367 33.8733C189.003 32.9912 189.855 32.9952 190.098 32.7196C190.34 32.4439 189.973 31.1214 189.852 30.7906C189.731 30.4598 189.432 30.2378 189.19 30.1827C188.947 30.1275 188.882 30.0144 188.821 29.4632C188.76 28.9119 188.336 27.8133 187.79 27.317C187.244 26.8209 187.915 26.4314 188.097 26.0455C188.279 25.6596 187.976 25.441 187.551 25.2206C187.126 25 186.09 25.4418 185.605 25.2764C185.12 25.111 184.756 23.3453 184.574 22.6838C184.392 22.0223 183.661 22.0216 183.297 22.1318C182.933 22.2421 182.268 22.4109 181.843 22.4109C181.418 22.4109 179.656 22.9588 178.989 23.1242C178.321 23.2896 177.66 22.1903 177.296 21.9147C176.932 21.6391 176.198 21.6356 175.227 21.6356C174.256 21.6356 174.38 21.8562 173.834 22.1318C173.288 22.4074 172.866 22.0766 172.441 21.6356C172.016 21.1946 172.44 21.0277 172.864 21.0277C173.289 21.0277 173.288 20.4211 173.288 20.0353C173.288 19.6493 173.166 19.3185 172.195 19.0429C171.224 18.7672 171.832 18.5487 172.257 18.2179C172.682 17.8872 172.318 17.0635 172.318 16.5122C172.318 16.1478 171.684 15.3542 171.13 14.6639C170.846 14.3099 170.578 13.9765 170.434 13.7521C170.397 13.6954 170.4 13.6429 170.42 13.5908C170.431 13.5565 170.451 13.5246 170.481 13.4916C171.146 12.7741 173.353 12.7048 174.442 12.3751C175.352 12.0995 174.137 10.5584 173.834 10.1174C173.53 9.67634 172.742 9.50604 172.257 9.23039C171.771 8.95479 171.767 8.51363 171.403 8.23797C171.039 7.96238 170.677 7.85274 170.495 7.7976C170.313 7.74248 170.132 7.30344 170.072 6.97264C170.011 6.64191 169.708 6.25519 169.526 5.92442C169.344 5.59364 169.344 5.48676 169.526 5.21111C169.708 4.93551 169.71 4.65492 169.71 4.32415C169.71 3.99338 168.675 3.06088 168.372 2.73007C168.068 2.39934 166.555 0.69086 165.948 0.304811C165.341 -0.0810797 164.732 0.0263988 164.186 0.0815174C163.64 0.136656 163.032 1.01607 162.486 1.34685C161.94 1.67762 161.938 0.631474 161.817 0.466078C161.696 0.300702 161.152 0.137351 160.424 0.137351C159.696 0.137351 158.422 0.0808624 157.754 0.0256842C157.713 0.02231 157.67 0.0236994 157.631 0.0256842L157.631 0.0197198Z" fill="#FFDB8A"/>
<path opacity="0.99" d="M5.80176 78.5755C5.76112 79.1256 6.36348 79.2397 6.64157 79.2144C6.94503 79.1868 8.27649 78.7168 8.51924 78.8546C8.76198 78.9925 9.16105 79.4873 9.16105 79.4873C9.16105 79.4873 9.61245 80.5341 9.67313 80.672C9.73387 80.8098 9.82489 81.1413 9.67313 81.224C9.52143 81.3067 9.40001 81.3336 9.40001 81.4163C9.40001 81.499 9.33704 81.5018 9.21567 81.6396C9.0943 81.7774 8.91599 82.0814 9.24982 82.1916C9.58352 82.3019 9.55101 82.3819 9.61169 82.4645C9.67238 82.5472 9.73308 82.5727 9.8848 82.5452C10.0365 82.5176 10.5827 82.3239 10.431 81.9931C10.2793 81.6624 10.3992 81.3336 10.5812 81.4163C10.7633 81.499 11.2846 81.9105 11.5576 81.9931C11.8307 82.0758 12.5288 81.7498 12.6501 81.6396C12.7715 81.5293 13.015 80.6155 13.2577 80.3123C13.5005 80.009 13.9193 79.8167 14.1317 79.8719C14.3441 79.927 14.4989 80.1737 14.6506 80.2564C14.8023 80.3391 15.0444 80.3956 15.1354 80.3681C15.2264 80.3405 15.4093 80.3701 15.47 80.4797C15.5306 80.59 15.6513 81.3067 15.9547 81.4721C16.2582 81.6375 16.4683 81.7506 16.5897 81.9435C16.7111 82.1365 16.8356 82.3557 17.1086 82.3281C17.3817 82.3005 17.5024 82.3536 17.5934 82.4087C17.6844 82.4638 18.1571 82.8229 18.4605 82.7126C18.6479 82.6446 18.7746 82.598 18.8497 82.5638C18.8953 82.5049 18.94 82.4608 18.9863 82.4397C19.1077 82.3846 19.2935 82.3281 19.2935 82.3281L20.0241 82.6878C20.4186 82.6878 20.5961 82.714 20.7479 82.8243C20.8995 82.9345 21.3556 83.0413 21.6287 83.0414C21.9017 83.0414 22.4799 83.0442 22.844 83.2647C23.2081 83.4852 23.4182 83.7079 23.479 83.9284C23.5397 84.1489 23.6307 84.4756 24.0252 84.3377C24.4196 84.1999 24.9394 83.6754 25.4249 83.7857C25.9104 83.896 26.8451 84.0635 27.1182 84.4494C27.186 84.545 27.248 84.6422 27.3026 84.7223C27.468 84.9648 27.6112 85.1048 27.999 85.0014L28.3677 84.9208C28.3677 84.9208 29.1545 85.4128 29.822 85.0821C30.4896 84.7513 30.6725 84.9153 30.9759 84.9704C31.2794 85.0255 31.2802 84.6968 31.5836 84.6417C31.8871 84.5864 31.8243 83.9243 33.5842 84.5859C35.344 85.2474 34.9202 85.3578 35.2843 85.5783C35.6484 85.7988 35.5839 85.9098 35.5233 86.1303C35.4625 86.3508 35.4012 86.6245 36.008 86.9552C36.2231 87.0724 36.4651 87.1868 36.6908 87.2902C37.1023 87.4784 37.4745 87.6442 37.5921 87.7864C37.7742 88.0069 38.3166 89.1599 38.3773 89.3804C38.438 89.6009 38.7445 89.9366 39.1693 89.7712C39.5941 89.6058 39.5919 89.6037 40.0774 89.6037C40.5629 89.6037 41.9589 89.1075 42.2623 88.6113C42.5657 88.1151 42.8048 87.6182 43.0475 87.5631C43.2358 87.5205 43.3142 87.4142 43.3684 87.2902C43.3842 87.254 43.4024 87.2156 43.4162 87.1785C43.4769 87.0131 43.5983 86.7919 43.9625 86.6265C44.3265 86.4611 45.1756 86.0759 45.5397 86.1861C45.9038 86.2964 46.5131 86.2405 46.8165 86.1303C47.1199 86.02 47.299 85.9077 47.6631 85.9628C48.0273 86.018 50.8162 86.131 51.2409 86.1861C51.6657 86.2413 51.913 86.1841 52.1558 86.0187C52.3986 85.8533 52.5776 85.6899 53.0025 85.6899C53.4272 85.6899 53.9766 85.5789 54.3408 85.6341C54.7048 85.6892 54.9446 85.6341 55.1874 85.5783C55.4301 85.5231 55.9173 85.468 56.4027 85.5783C56.8883 85.6885 57.675 85.5816 57.8571 85.3612C58.0391 85.1406 58.3449 84.2006 58.5876 84.1455C58.8304 84.0903 59.2568 83.8705 59.2568 83.7051C59.2568 83.5397 59.6148 82.6595 59.8576 82.3839C60.1003 82.1083 59.7386 81.7761 60.042 81.7761C60.3454 81.7761 60.6497 81.6086 60.6497 81.6086H60.7725C60.8138 81.6586 60.8717 81.703 60.9364 81.7203C61.0142 81.7405 61.1022 81.7248 61.1686 81.6644C61.2899 81.5542 61.9204 81.089 62.2542 81.1992C62.5879 81.3095 62.9848 81.5293 63.2579 81.3915C63.531 81.2537 63.7123 81.142 63.7426 81.0318C63.7549 80.9865 63.7809 80.9305 63.8178 80.8767C63.8706 80.7992 63.9442 80.735 64.0158 80.7837C64.1371 80.8664 64.2631 81.0048 64.3845 80.8395L64.6576 80.5045C64.6576 80.5045 65.5012 78.6907 65.8046 78.9663C66.1081 79.2419 66.5937 79.9029 66.8971 79.9029C67.2005 79.9029 67.5093 79.459 67.3272 79.1834C67.2302 79.0364 66.9974 78.783 66.8903 78.5755H5.80257L5.80176 78.5755ZM69.4305 78.5755C69.7036 78.6798 69.9812 78.7695 70.1747 78.7988C70.5029 78.8485 70.8813 78.7222 70.9531 78.5755H69.4305ZM72.4212 78.5755C72.7655 78.732 73.6561 78.8437 74.1623 78.5755H72.4212ZM82.7108 78.5755C82.8039 78.6996 82.8551 78.8449 82.8883 78.9353C82.949 79.1006 83.2526 79.9546 84.2539 80.12C85.2552 80.2853 85.8956 80.262 85.8652 80.703C85.8477 80.9588 85.7198 81.3291 85.6672 81.6086C85.6288 81.8106 85.6276 81.9587 85.7423 81.9931C86.0154 82.0758 86.3796 81.9428 86.5617 81.6396C86.7437 81.3364 87.0775 81.5245 87.1079 81.7451C87.1382 81.9656 87.202 82.9063 87.8999 82.5204C88.5978 82.1345 89.2313 81.5811 89.5045 81.8567C89.7775 82.1323 90.1432 82.7423 89.6274 83.1282C89.1115 83.5141 88.5622 83.9828 89.1084 84.1206C89.6546 84.2584 89.7154 83.9552 89.9278 83.6244C90.1402 83.2936 90.625 83.2109 90.6857 83.6244C90.7464 84.0379 90.7191 84.0338 90.6584 84.53C90.6584 84.53 91.8994 86.4944 91.5391 84.53C91.4784 84.1992 92.5725 83.5404 93.3007 83.7609C93.8712 83.8425 95.0842 83.8166 95.7587 84.1206C95.8106 84.142 95.8642 84.1629 95.909 84.1888C96.0547 84.2732 96.1638 84.3853 96.2094 84.53C96.3544 84.9908 96.8432 86.359 97.4998 87.2901C97.6659 87.5259 97.8476 87.7332 98.0324 87.8917C98.1127 87.9606 98.1884 88.0108 98.2714 88.0592C98.3607 88.1114 98.4527 88.1591 98.5445 88.1833C98.5541 88.1858 98.5689 88.1811 98.5786 88.1833C98.5891 88.1856 98.5955 88.1937 98.6059 88.1957C98.6462 88.2032 98.6888 88.2127 98.7288 88.2143C98.8205 88.2178 98.909 88.2016 99.002 88.1708C100.337 87.7299 101.067 86.9587 101.31 87.7305C101.552 88.5023 102.04 89.1646 102.525 89.2749C103.01 89.3851 101.309 90.4838 101.794 90.9248C102.28 91.3658 102.768 91.7008 102.525 92.2521C102.282 92.8034 101.914 93.022 101.672 93.5733C101.429 94.1245 101.552 95.1185 101.31 95.6697C101.067 96.2209 100.705 96.2162 100.948 96.7675C101.191 97.3188 101.428 97.5442 102.156 97.6545C102.885 97.7647 103.615 98.8633 103.979 99.3044C104.343 99.7454 103.979 100.518 104.587 100.849C105.194 101.18 105.92 100.963 106.041 100.632C106.163 100.301 106.77 100.079 107.134 100.52C107.498 100.961 107.985 101.949 107.257 102.17C106.528 102.39 106.773 102.833 106.895 103.274C107.016 103.715 107.377 103.939 106.649 104.049C105.921 104.16 105.677 104.376 106.041 104.707C106.405 105.038 106.648 105.59 107.134 105.259C107.619 104.928 107.864 105.257 107.864 105.588C107.864 105.918 107.622 106.583 107.38 106.803C107.137 107.024 106.651 107.575 107.38 107.796C108.108 108.016 108.593 107.908 108.957 108.459C109.321 109.011 109.681 108.681 110.288 109.011C110.895 109.342 110.895 109.45 111.381 109.78C111.866 110.111 111.986 109.673 112.35 110.004C112.714 110.335 113.206 110.444 112.842 110.885C112.478 111.326 112.108 112.313 112.35 112.975C112.593 113.636 112.716 114.08 112.473 114.631C112.23 115.182 111.747 116.178 112.111 116.399C112.475 116.619 112.721 117.719 113.934 118.16C115.148 118.601 114.904 118.819 113.811 118.929C112.719 119.039 111.991 119.04 111.627 119.481C111.262 119.922 110.288 119.594 110.288 119.153C110.288 118.712 110.653 117.498 109.804 117.608C108.954 117.718 108.228 117.168 108.349 118.16C108.471 119.152 107.986 119.482 107.38 119.041C106.773 118.6 105.802 118.272 105.802 118.272C105.802 118.272 106.288 117.279 105.802 117.279C105.317 117.279 104.587 117.279 104.587 117.72C104.587 118.161 104.222 118.708 103.979 118.377C103.737 118.046 103.617 117.721 103.01 117.831C102.403 117.942 102.401 118.048 102.279 118.489C102.158 118.93 101.674 119.263 101.31 119.153C100.946 119.042 101.312 118.383 101.433 117.831C101.554 117.28 101.676 115.733 100.948 116.064C100.22 116.395 100.092 116.725 99.3638 117.056C98.6356 117.387 96.6986 117.386 97.0629 118.489C97.427 119.591 97.4232 120.255 97.3018 120.585C97.1805 120.916 97.1835 121.137 97.5476 121.578C97.9118 122.019 98.7569 122.68 98.2714 123.011C97.7859 123.341 97.1789 124.005 97.1789 124.667C97.1789 125.328 97.4239 125.986 96.8171 126.317C96.2102 126.647 94.3901 126.98 94.1473 127.421C93.9046 127.862 94.3885 129.298 94.0244 129.629C93.6603 129.959 93.0585 130.178 91.7235 130.95C90.3885 131.722 89.6593 132.054 90.0234 133.046C90.3875 134.038 90.1395 134.149 90.1395 135.031C90.1395 135.315 90.1082 135.546 90.0371 135.72C89.8868 136.085 89.5815 136.204 89.1699 136.129C88.8665 136.074 88.0213 135.747 87.2172 135.72C86.4131 135.692 85.652 135.964 85.5307 137.121V137.233C86.0161 137.371 86.3166 137.509 86.3773 137.729C86.438 137.95 86.4085 139.024 86.985 139.602C87.5615 140.181 88.5661 140.572 89.1426 140.737C89.7191 140.903 89.9589 141.01 90.2623 141.258C90.5658 141.507 91.1143 141.531 91.266 141.531C91.4177 141.531 91.7235 141.564 91.9966 141.73C92.2697 141.895 92.7515 142.061 93.055 141.978C93.3584 141.895 93.7529 141.835 93.8743 141.835C93.9956 141.835 94.394 141.673 94.1815 141.562C93.9691 141.452 93.2348 141.012 93.6899 140.874C94.1451 140.736 94.2384 140.651 94.1474 140.458C94.0564 140.265 93.9639 139.851 94.2976 139.906C94.6314 139.961 94.7528 140.048 94.8438 140.185C94.9349 140.323 95.1223 140.43 95.274 140.403C95.4257 140.375 95.5752 140.487 95.6359 140.57C95.6965 140.653 96.396 141.201 96.5781 140.843C96.7602 140.485 96.9696 139.795 97.4248 139.547C97.8799 139.298 98.0317 139.3 98.2441 139.162C98.4565 139.024 98.763 138.887 99.0361 138.97C99.3092 139.052 99.3336 139.052 99.637 138.97C99.9404 138.887 100.431 138.502 100.613 138.337C100.795 138.172 100.948 138.117 101.221 138.145C101.494 138.172 101.825 138.199 102.068 138.033C102.31 137.868 102.489 137.894 102.641 137.921C102.793 137.949 103.222 138.036 103.495 138.008C103.768 137.981 103.979 137.924 104.253 138.145C104.526 138.365 104.583 138.363 105.099 138.473C105.615 138.584 106.47 138.917 106.622 139.137C106.774 139.358 107.531 140.102 107.591 140.626C107.652 141.15 107.682 141.509 107.865 141.73C108.047 141.95 108.377 142.251 108.377 142.251L108.349 142.276L108.411 142.251L108.561 142.238L108.609 142.183V142.028L108.513 141.854L108.506 141.711L108.568 141.606L108.827 140.83L109.066 140.365L109.087 140.266L109.066 140.198C109.066 140.198 109 140.069 108.964 140.006C108.952 139.984 108.95 139.962 108.95 139.962L109.025 139.658L108.916 139.329L108.889 138.802L108.793 138.709L108.616 138.585V138.529L108.841 138.61H108.93L108.977 138.573L109.005 138.486L109.025 137.785L108.991 137.717L108.841 137.58L108.779 137.388L108.643 137.332L108.554 137.425L108.431 137.934L108.356 138.058L108.322 137.99L108.308 137.686L108.247 137.562L108.185 137.537L108.035 137.593L107.933 137.773L107.885 137.828H107.824L107.776 137.704L107.796 137.456L107.762 137.314L107.735 137.264L107.639 137.245L107.564 137.276L107.475 137.369L107.414 137.525L107.366 138.008L107.291 138.021L107.127 137.897L106.915 137.549L106.67 137.245V137.177L106.717 137.121L106.854 137.084L106.956 136.997L107.202 136.545L107.311 136.452H107.387L107.564 136.34L107.639 136.228L107.701 136.061L107.721 136.036L107.626 136.024L107.503 135.955L107.23 135.937L106.956 135.881L106.67 135.757L106.595 135.651L106.608 135.416L106.793 134.467L106.765 134.076L106.656 133.443L106.67 133.115L106.731 132.96L106.82 132.854L107.004 132.742L107.202 132.674L107.311 132.587V132.507L107.264 132.463L107.093 132.339L107.052 132.234L107.038 131.998L107.175 131.626L107.325 131.378L107.523 131.186L107.55 131.086L107.291 130.621L107.277 130.466L107.311 130.385L107.366 130.354L107.428 130.373L107.523 130.466L107.598 130.658L107.66 130.702L108.008 130.714L108.049 130.77L108.11 131.043L108.267 131.186L108.247 131.334L108.069 131.539L108.035 131.707L107.96 131.93L107.933 132.091L108.049 132.259L108.11 132.383L108.083 132.55L107.974 132.755V132.904L108.049 133.015L108.383 133.263L108.595 133.524L108.827 133.927L108.855 134.144L108.766 134.467L108.793 134.616H108.855L108.902 134.56L108.964 134.411L109.025 134.38L109.414 134.268L109.537 134.2L109.571 134.119L109.551 133.896L109.585 133.846L109.66 133.815L109.858 133.927L109.947 133.939L110.008 133.927L110.131 133.859L110.282 133.722L110.664 133.542L110.766 133.456L110.8 133.375L110.739 133.263L110.616 133.195L110.329 133.17L110.193 133.115L109.81 132.643L109.749 132.519V132.37L109.797 132.203L109.886 132.091L110.316 131.967L110.63 131.831L110.903 131.843L110.978 131.818L111.128 131.595L111.21 131.57L111.285 131.595L111.326 131.638L111.313 131.806L111.347 131.874L111.647 132.054L111.722 132.159L111.784 132.37L111.872 132.395L111.907 132.327L111.872 132.11L111.893 131.942L111.633 131.347L111.661 130.919L111.797 130.565L111.831 130.522L111.907 130.509L111.948 130.646L111.872 131.043L111.893 131.117L112.009 131.186L112.118 131.434H112.146L112.419 130.894L112.439 130.795L112.316 130.633L112.303 130.497L112.357 130.162L112.453 130.057L112.576 130.001H112.664L113.258 130.15L113.409 130.286L113.648 130.702L113.818 130.894H113.893L113.955 130.633L113.982 130.578L114.044 130.534L114.269 130.702L114.33 130.689L114.378 130.621V130.454L114.453 130.33L114.467 130.261L114.33 129.945L114.563 129.585L114.624 129.157L114.699 129.033L114.774 129.046L114.897 129.201L115.013 129.436L114.986 129.598L114.863 129.765V129.833L115 129.97L115.075 130.162L114.986 130.565H115L115.396 130.317L116.263 129.684L116.577 129.517L116.748 129.405L116.986 129.046L117.26 128.742L117.703 127.973L118.127 127.421L118.366 127.185L118.837 126.788L119.083 126.54L119.369 126.36L119.916 125.839L120.551 125.324L120.708 125.064L120.858 124.524L120.919 124.387L121.022 124.294L121.22 124.208L121.308 124.115L121.527 123.755L121.718 123.339L121.841 123.166L122.039 122.967L122.374 122.514L122.872 122.049L122.947 121.937L123.302 121.261C123.302 121.261 123.311 121.155 123.343 121.038C123.385 120.885 123.439 120.709 123.439 120.709V120.629L123.377 120.517L123.07 120.393L122.92 120.257L122.893 120.133L122.92 120.046L122.968 120.021L123.145 120.033L123.678 120.312L123.787 120.325L123.876 120.033L124.012 119.909L124.572 119.549L124.634 119.401L124.845 118.588L125.03 118.272V118.104L124.859 117.9L124.832 117.441L124.743 117.348L124.511 117.248L124.422 117.155L124.347 116.963L124.449 116.783L124.647 116.603L124.968 116.119L125.071 116.039L125.228 115.995L125.316 116.008L125.528 116.107L125.617 116.119H125.726L125.999 116.051L126.634 115.76L126.969 115.53L127.105 115.456L127.255 115.443L127.426 115.487H127.515L127.911 115.208L128.368 115.015L128.942 114.854L129.249 114.811L129.85 114.823L130.219 114.73L130.492 114.618L130.792 114.587H130.99L131.175 114.631L131.782 114.854L132.158 114.935L132.52 114.947L133.175 115.059L133.325 115.046L133.646 114.891L133.885 114.755L134.24 114.662L134.452 114.575L134.541 114.482L134.63 114.147L134.725 114.054L134.964 113.918L135.21 113.682L135.483 113.13L135.647 112.906L135.742 112.677L135.681 112.553L135.633 112.51L135.387 112.429L135.06 112.249L134.964 112.15L134.903 111.958L134.862 111.436L134.739 111.201L134.787 111.145L134.875 111.157L135.026 111.294L135.087 111.418L135.176 111.833L135.237 111.945L135.524 112.069L135.783 112.286L135.879 112.305L135.954 112.286L136.043 112.193L136.091 112.038V111.877L136.057 111.753L136.07 111.666L136.364 111.585L136.541 111.486L136.835 111.294L136.91 111.188L137.012 110.996L137.135 110.593L137.211 110.624L137.299 110.717L137.333 110.773V110.94L137.088 111.312L136.576 111.846L136.466 112.15L136.453 112.553L136.391 112.702L136.268 112.882L136.016 113.086L135.92 113.21L135.906 113.545L135.783 113.738L135.695 113.843L135.435 113.955L135.333 114.054L135.251 114.259L135.271 114.414L135.299 114.463L135.449 114.519L135.797 114.538L136.152 114.618L136.364 114.73L136.514 114.867L136.664 114.922H136.835L136.89 114.879L136.951 114.742L137.012 114.482L137.074 114.327L137.163 114.215L137.333 114.11L137.757 113.998H137.941L138.528 114.178L138.836 114.29L139.245 114.507L139.423 114.538L139.757 114.519L140.126 114.687L140.29 114.73H140.379L141.048 114.463L141.553 114.215L141.765 114.054L141.84 113.831L141.655 113.471L141.608 113.117L141.628 112.95L141.765 112.466L141.703 112.261L141.628 112.082L141.492 111.933L141.28 111.765L141.123 111.542L141.061 111.337V111.12L141.157 110.785L141.218 110.649L141.335 110.469L141.505 110.345L142.079 110.097L142.188 110.016L142.236 109.96L142.55 109.259L142.659 108.856L142.7 108.596L142.673 108.528L142.536 108.459L142.338 108.528L142.215 108.596L142.017 108.676H141.853L141.703 108.621L141.608 108.528L141.553 108.403L141.58 108.069L141.642 107.932L142.079 107.38L142.202 107.2L142.215 107.12L142.202 107.051L142.154 107.008L142.079 106.983L141.929 107.008L141.519 107.275L141.396 107.324L141.02 107.287L140.884 107.219L140.734 107.076L140.611 106.76L140.624 106.443L140.747 106.158L141.061 105.699L141.109 105.563L141.096 105.339L141.007 105.147L140.761 104.93L140.399 104.843L140.324 104.818L140.242 104.707L140.215 104.57L140.338 104.117L140.365 103.783L140.324 103.646L140.14 103.373L139.88 103.237L139.423 103.137L139.095 102.945L138.911 102.753L138.863 102.561L138.897 102.381L138.972 102.244L139.061 102.145L139.259 102.077L139.32 102.12L139.245 102.598L139.307 102.79L139.409 102.889L139.546 102.945L140.228 103.15L140.502 103.274L140.577 103.386L140.624 103.522L140.549 104.186L140.563 104.335L140.638 104.459L140.652 104.514L140.822 104.638L141.218 104.794L141.369 104.93L141.43 105.042L141.505 105.383L141.471 105.73L141.321 106.115L141.109 106.499L141.082 106.667L141.096 106.723L141.198 106.816L141.369 106.871L141.519 106.884L141.853 106.747L142.174 106.704L142.338 106.723L142.611 106.791L142.762 106.915L142.782 107.064L142.7 107.2L142.127 107.783L142.051 108.019L142.079 108.155L142.14 108.267L142.311 108.304L142.564 108.292L142.782 108.224L143.035 108.267L143.205 108.403L143.246 108.596L143.205 108.955L142.994 109.669L142.837 110.041L142.734 110.233L142.372 110.55L142.202 110.773L142.127 111.102L142.14 111.722L142.236 111.902L142.325 112.162L142.4 112.274L142.645 112.51L142.673 112.565L142.686 113.117L142.994 113.843L143.403 114.37L143.704 114.575L143.854 114.631L144.038 114.662L144.373 114.631L144.475 114.643L144.632 114.699L144.83 114.811L144.933 114.91L145.042 115.071L145.158 115.691L145.267 115.791H145.356L145.404 115.747L145.643 115.499L145.766 115.419L145.95 115.35L146.251 115.307L146.387 115.251L146.585 114.96L146.647 114.922L146.722 114.891L146.892 114.922L147.008 115.003L147.5 115.487L147.753 115.704L147.889 115.778L148.162 115.815L148.818 115.778L149.193 115.691L149.501 115.543L150.013 115.208L150.593 114.922L150.716 114.879L150.955 114.73L151.214 114.618L151.365 114.587L151.549 114.606L151.747 114.519L152.607 113.967L152.669 113.942H152.764L152.867 114.042L152.471 114.507L152.218 114.742L152.02 114.836L151.638 114.91L151.44 114.991L151.153 115.17L150.545 115.388L150.381 115.499L150.06 115.859L149.862 115.94L149.528 116.163L149.364 116.399L149.303 116.74L149.364 116.851L149.562 116.963L149.589 117.019L149.562 117.099L149.453 117.18L148.954 117.428L148.572 117.732L148.319 117.72L148.026 117.676L147.862 117.62L147.282 117.527L147.07 117.428L146.783 117.155L146.558 117.056L146.285 117.031L146.053 117.068L145.916 117.124L145.752 117.143L145.588 117.099L144.844 116.796L144.748 116.771L144.585 116.783L144.387 116.864L144.1 116.932L143.704 116.975L143.328 116.92L142.837 116.771L142.645 116.74L142.099 116.715L141.628 116.647L141.321 116.696L141.143 116.684L141.02 116.628L140.884 116.467L140.399 116.368L140.187 116.275L139.88 116.076L139.58 115.952L139.409 115.94L139.095 115.995L138.685 116.008L138.528 116.051L138.119 116.188L137.695 116.2L137.47 116.244H137.122L136.849 116.188L136.603 116.119L136.425 115.995L136.016 115.555L135.818 115.443L135.77 115.474L136.152 116.026L136.302 116.15L136.774 116.411L137.211 116.975L137.395 117.168L137.634 117.335L137.968 117.509L138.064 117.608L138.139 117.707L138.228 117.881L138.364 118.352L138.44 118.464L138.501 118.433L138.528 118.352L138.549 117.552L138.59 117.391L138.726 117.236L138.836 117.18H138.924L139.382 117.211L139.518 117.155H139.867L140.228 117.304L140.563 117.403L141.246 117.676L141.642 117.8L142.215 118.079L142.311 118.092L142.461 118.061L142.7 117.924H142.796L142.857 117.968L143.192 117.937L143.267 117.955L143.444 118.148L143.54 118.328L143.656 118.476L143.95 118.768L144.113 119.041L144.161 119.177L144.113 119.246L144.066 119.301L143.704 119.277L143.554 119.32L143.431 119.37L143.403 119.444L143.369 119.605L143.294 119.742L142.994 119.909L142.673 120.046L141.99 120.17H141.457L140.986 120.114L140.652 120.132L140.515 120.17L140.215 120.35L139.819 120.517L139.655 120.641L139.607 120.778L139.744 120.933C139.744 120.933 139.83 121.001 139.88 121.038C139.901 121.054 139.914 121.069 139.914 121.069L140.051 121.286L140.106 121.33L140.351 121.41L140.7 121.454L141.171 121.385L141.457 121.41L141.608 121.385L141.655 121.249L141.594 121.137C141.594 121.137 141.562 121.088 141.519 121.038H142.263C142.329 121.076 142.386 121.106 142.386 121.106L142.475 121.206L142.625 121.497L142.762 121.565L143.13 121.634L143.342 121.727L143.676 121.826L143.827 121.813L144.038 121.77L144.148 121.782L144.264 121.826L144.462 122.006L144.632 122.198L144.796 122.403L144.933 122.638L145.022 122.719L145.39 122.886L145.663 122.942L146.114 123.122L146.312 123.147L146.524 123.091L146.783 123.166L146.92 123.122L147.227 122.955H147.302L147.329 123.011L147.316 123.091L146.995 123.358L146.967 123.439L147.165 123.786L147.193 124.084L147.254 124.276L147.343 124.375L147.712 124.443L148.422 124.691L149.528 125.008L151.051 125.312L151.324 125.324L151.515 125.256L151.747 124.983L152.006 124.896L152.184 124.871L152.443 124.747L152.594 124.735L152.928 124.598L153.078 124.567H153.153L153.611 124.636L153.809 124.543L154.034 124.524L154.246 124.443L154.58 124.226L155.038 124.139L155.659 124.152L156.13 124.319H156.219L156.431 124.276L156.54 124.294L156.738 124.387L156.779 124.443L156.95 124.487L157.114 124.474L157.407 124.307L157.557 124.263L157.721 124.251L158.24 124.276L158.636 124.239L158.827 124.139L158.923 124.028L158.964 123.891L158.937 123.674L158.786 123.463L158.814 123.414L158.862 123.383L159.456 123.55L159.981 123.991L160.166 124.028L160.316 124.003L160.603 123.835L161.108 123.494L161.347 123.358L161.381 123.302L161.361 122.998L161.408 122.843L161.593 122.738L161.695 122.558L161.77 122.322L161.866 122.223L161.927 122.241V122.39L161.852 122.514L161.804 122.862L161.927 123.395L161.941 123.55L161.879 123.699L161.716 123.904L161.695 123.959L161.716 124.028L161.757 124.084L161.832 124.059L162.228 123.798L162.351 123.742L162.439 123.73H162.514L162.712 123.854L163.245 124.059L163.334 124.139L163.354 124.208L163.32 124.375L163.218 124.487L162.986 124.623L162.91 124.735L162.972 124.76L163.136 124.803L163.218 124.772L163.409 124.474L163.532 124.418L164.201 124.598L164.337 124.76L164.385 125.039L164.672 125.243L164.87 125.504L165.007 125.572H165.184L165.478 125.392L165.642 125.38L166.099 125.616L166.174 125.64L166.249 125.628L166.297 125.56L166.263 125.504L166.004 125.132V125.051L166.085 124.915L166.174 124.815L166.297 124.747L166.843 124.791L166.898 124.76L166.918 124.691L166.782 124.555L166.536 124.474L166.413 124.388L166.386 124.263L166.447 124.115L166.598 123.978L166.796 123.904L166.843 123.854L166.932 123.643L167.116 123.55L167.171 123.507L167.267 123.29L167.328 123.259L167.417 123.271L167.615 123.37L167.704 123.482L167.915 123.959L168.161 124.276L168.311 124.567V124.722L168.298 124.803L168.127 124.915L168.038 125.02L168.025 125.107L168.038 125.572L168.161 125.808L168.325 125.92L168.373 125.975V126.056L168.325 126.112L168.1 126.261L168.025 126.385L168.311 126.744L168.373 126.955L168.345 127.036L168.072 127.352L168.011 127.501L168.025 127.557L168.072 127.613L168.236 127.6L168.496 127.272L168.619 127.216H168.796L169.219 127.328L169.889 127.408L170.1 127.52L170.257 127.644L170.332 127.749L170.346 127.824L170.312 127.892L170.257 127.929L169.752 127.96L169.465 128.14L169.404 128.165L169.219 128.152L169.069 128.196L169.042 128.246L169.028 128.413L169.117 128.661L169.165 128.953L169.144 129.114L169.042 129.213L168.83 129.257L168.673 129.213L168.557 129.145L168.311 128.897L168.175 128.829L168.086 128.816L167.874 128.866L167.28 129.114L167.171 129.226L167.116 129.474L167.021 129.585L166.884 129.629L166.748 129.666L166.4 129.685L166.338 129.654L166.099 129.505L165.928 129.474L165.826 129.542L165.751 129.685L165.689 129.722H165.355L164.959 129.877L164.549 130.354L164.338 130.565L164.126 130.714L163.429 131.155L162.487 131.595L162.276 131.663H162.18L162.03 131.595L161.907 131.446L161.791 131.378L161.545 131.279L161.422 131.21L161.381 131.086L161.347 130.937L161.245 130.851L161.149 130.95L161.087 131.117L161.108 131.186L161.197 131.365L161.422 131.514L161.518 131.626V131.694L161.483 131.762L160.924 131.93L160.091 132.395L159.046 132.835L157.967 133.35L157.755 133.419L157.175 133.772L156.725 134.175L156.219 134.547L155.994 134.795V134.932L156.178 135.124L156.206 135.192L156.219 135.261L156.096 135.459L155.98 135.527H155.905L155.509 135.459L155.277 135.372L155.004 135.36L154.888 135.441L154.594 135.924L154.369 136.104L153.993 136.253L153.386 136.352L153.188 136.452L152.88 136.712L152.17 137.121L151.822 137.345L151.624 137.525L151.051 138.337L150.894 138.79L150.941 138.914L151.153 139.175L151.214 139.299L151.201 139.621L151.228 139.758L151.303 139.869L151.351 139.906L151.747 139.975C151.747 139.975 151.784 139.989 151.822 140.006C151.883 140.033 151.959 140.061 151.959 140.061L152.245 140.279L152.416 140.31L152.99 140.279L153.078 140.291L153.352 140.415L153.447 140.446L153.611 140.434L153.734 140.378L153.932 140.074L154.021 139.975L154.185 139.851L154.369 139.758L154.519 139.621L154.703 139.522L154.949 139.497L155.598 139.547L156.096 139.423L156.54 139.41L156.902 139.454L157.858 139.689L158.281 139.95L158.343 140.006C158.407 140.055 158.5 140.117 158.5 140.117L159.101 140.434L159.968 141.066L160.739 141.811L160.862 141.891L161.224 142.276L161.654 142.623L161.818 142.679L162.262 142.704L162.412 142.76L162.651 142.927L162.863 143.175L162.986 143.256L163.259 143.312L163.409 143.287L163.58 143.175L163.805 142.896L163.955 142.871L164.215 142.896L164.351 142.84L164.638 142.648L164.884 142.623L165.048 142.636L165.232 142.679L165.566 142.871L166.359 143.461L166.673 143.572L166.946 143.696L167.403 144.044L167.478 144.137L167.628 144.261L167.799 144.472L167.888 144.651L168.052 145.321L168.072 145.793L168.1 145.997L168.127 146.053L168.209 146.14L168.359 146.345L168.571 146.829L168.782 147.79V148.026L168.619 148.578V148.813L168.537 149.061L168.496 149.13L168.373 149.186L167.977 149.235L167.854 149.291L167.765 149.39L167.581 149.707L167.506 150.054L167.294 150.563V150.643L167.417 150.947C167.417 150.947 167.423 150.975 167.43 151.028C167.451 151.172 167.492 151.443 167.492 151.443L167.704 151.871L167.799 152.188V152.355L167.663 152.752L167.369 153.155L167.308 153.385L167.355 153.509L167.444 153.608L167.506 153.651L167.854 153.676L167.949 153.701L168.147 153.813L168.175 153.881L168.072 153.968L167.826 154.024L167.417 154.036L167.116 154.092L166.932 154.061L166.495 154.172L166.14 154.16L166.038 154.34L165.792 154.365L165.642 154.6L165.519 154.669H165.444L165.368 154.569L165.266 154.489L165.068 154.476L165.034 154.613L165.048 154.669L165.266 154.929L165.566 155.221L166.201 155.661L166.447 155.897L166.645 156.002L167.021 156.145L167.581 156.418L167.751 156.461H167.813L168.263 156.269L168.434 156.281L168.673 156.449L168.98 156.871L169.165 157.069L169.178 157.137L169.144 157.367L169.165 157.441L169.253 157.534L169.438 157.615L169.998 157.727L170.223 157.894L170.394 158.086L170.571 158.198L170.756 158.235L171.213 158.21L171.787 158.31L171.998 158.235L172.36 158.061L172.592 158.03L172.852 158.061L173.473 158.266L173.937 158.359L174.395 158.31L174.955 158.043L175.337 157.962L175.44 157.894L175.576 157.726L176.156 157.509L176.382 157.466L176.976 157.218L177.14 157.106L177.276 156.945L177.706 156.182L177.843 156.046L178.191 155.934L178.614 155.909L178.751 155.866L178.888 155.618L179.099 155.016L179.188 154.904L179.4 154.892L179.857 154.973H179.946L180.13 154.873L180.178 154.817L180.24 154.681L180.267 154.42L180.342 154.197L180.601 153.757L180.902 152.932L181.332 152.367L181.605 151.735L181.769 151.499L181.906 151.344L182.015 151.263L182.288 151.17C182.288 151.17 182.38 151.091 182.465 151.028C182.542 150.971 182.616 150.922 182.616 150.922L182.971 150.711L183.148 150.618L183.346 150.587L183.906 150.438L184.179 150.339L184.848 150.19L185.135 150.023L185.456 149.651L185.866 149.403L186.064 149.322L186.521 149.235L186.91 149.198L187.218 149.223L187.532 149.334H187.607L187.743 149.279L187.914 149.074L188.051 149.03L188.139 149.061L188.31 149.186L188.46 149.235H188.624L188.795 149.117L188.897 148.919L189.02 148.77L189.143 148.702L189.655 148.59L190.024 148.602L190.235 148.702L190.809 149.266L190.932 149.434L191.041 149.514L191.314 149.558H191.389L191.526 149.502L191.738 149.334L191.874 149.086L191.977 148.77L192.099 148.106L192.175 147.877L192.345 147.554L192.584 147.306L192.857 147.114L193.13 147.033L193.438 146.965L193.636 146.884L193.677 146.829L193.834 146.264L193.936 146.066L194.12 145.973L194.284 145.96L194.646 146.041H194.728L195.015 145.848L195.165 145.904L195.623 146.245L195.711 146.264L195.759 146.221L195.8 146.152L195.773 146.016L195.588 145.737L195.561 145.669L195.575 145.532L195.636 145.396L195.739 145.296L195.923 145.197L196.592 145.16L196.695 145.073L196.729 145.005L196.715 144.937L196.592 144.856L196.258 144.757L196.107 144.633L196.094 144.496L196.107 144.316L196.148 144.155L196.244 143.944L196.408 143.727L196.558 143.585L197.425 143.02L197.835 142.691L198.046 142.623L198.292 142.617L198.443 142.574L198.941 142.561L199.719 142.673L200.218 142.822L200.702 143.057L201.099 143.181L201.31 143.293L201.809 143.591L202.095 143.715L202.642 144.391L202.887 144.85L203.01 144.931L203.283 144.974L204.089 144.763L204.512 144.558L204.71 144.571L204.922 144.67L205.12 144.695L205.345 144.682L205.455 144.602L205.543 144.478L205.605 144.335L205.666 144.087L205.782 143.913L205.892 143.814L206.09 143.746H206.923L206.998 143.771L207.285 143.982L207.517 144.062L208.199 144.143H208.363L208.91 144.254H208.998L209.08 144.242L209.183 144.161L209.271 144.05L209.353 143.826L209.456 143.634L209.626 143.51L209.852 143.467L210.323 143.454L210.596 143.467L211.142 143.417L211.716 143.057L212.173 142.865L212.337 142.753L212.399 142.617L212.385 142.462L212.064 142.146L211.75 141.736L211.518 141.321L211.49 140.961L211.518 140.229C211.518 140.229 211.53 140.124 211.552 140.012C211.573 139.903 211.593 139.789 211.593 139.789L211.688 139.571L211.75 139.323L211.702 139.044V138.883L211.729 138.716L211.825 138.616L211.9 138.591L212.494 138.455L212.672 138.356L212.706 138.3L212.685 138.163L212.433 137.847L212.399 137.624L212.433 137.543L212.508 137.419L212.631 137.339L212.767 137.308L213.095 137.283H213.266L213.368 137.308L213.737 137.444L213.914 137.475L214.324 137.444L214.597 137.363L214.693 137.27L214.754 137.115L214.693 136.458L214.42 136.086L214.324 135.906L214.174 135.695L214.051 135.614H213.798L213.313 135.986L213.143 136.011L213.054 135.986L212.917 135.918L212.61 135.589C212.398 135.286 212.1 135.31 211.675 135.503C211.25 135.695 211.068 135.67 210.582 135.422C210.097 135.174 210.095 135.314 209.715 135.558C209.335 135.803 209.645 135.189 209.64 135.118C209.635 135.047 209.214 135.063 208.971 135.118C208.728 135.173 207.756 135.396 207.209 135.341C206.663 135.286 206.696 135.561 206.301 135.782C205.907 136.002 205.878 136.278 205.878 136.278L205.632 136.923L205.496 137.183L205.298 137.394L205.1 137.463L204.949 137.487L204.403 137.463L203.918 137.308L203.755 137.171L203.188 136.911L202.751 136.65L202.587 136.458L202.526 136.334L202.45 136.135V135.986L202.478 135.931L202.689 135.875L202.751 135.819L202.778 135.763L202.737 135.639L202.491 135.49L202.293 135.465H202.13L202.007 135.546L201.904 135.738L201.809 136.334L201.645 136.786L201.474 137.004L201.324 137.159L201.16 137.27L201.051 137.363L201.037 137.444L201.051 137.587L201.037 137.655L200.873 137.779L200.716 138.12L200.675 138.176L200.491 138.288L200.231 138.399L199.098 138.703L198.156 139.143L197.65 139.28L197.439 139.323L197.261 139.336L197.002 139.268L196.79 139.168L196.442 138.92L196.21 138.672L195.923 138.604L195.513 138.399L194.633 137.804L194.38 137.568L193.724 136.743L193.342 136.359L192.953 135.906L192.557 135.366L192.134 134.87L191.922 134.523L191.676 134.206L191.253 133.778L190.707 133.121L190.433 132.829L190.113 132.401L189.874 131.917L189.737 131.769L189.58 131.477L189.382 131.217L189.191 131.037L189.068 130.875L188.72 130.181L188.385 129.691L188.235 129.399L187.928 128.556L187.655 128.035L187.32 127.631L187.067 127.166L186.985 126.974L186.883 126.341L186.774 125.938L186.337 125.014L186.2 124.326L186.091 123.128L185.893 122.632L185.852 122.44V122.124L185.954 121.913L186.077 121.751L186.303 121.584L186.521 121.516L186.685 121.416L186.883 121.224L186.972 120.716L187.006 120.647L187.047 120.592L187.108 120.579H187.17L187.279 120.691L187.381 121.075L187.443 121.113L187.532 121.131L187.702 121.113L188.201 120.864L189.068 120.635L189.191 120.567L189.505 120.343L189.99 119.86L190.358 119.556L190.556 119.252L190.768 118.731L190.918 118.495L191.178 118.259C191.178 118.259 191.348 118.035 191.43 117.931H192.482C192.487 117.985 192.482 118.03 192.482 118.03V118.346L192.543 118.539L192.659 118.619L192.953 118.675L193.151 118.774H193.24L193.301 118.731L193.499 118.439L193.649 118.303L193.752 118.346L193.738 118.508L193.602 118.898L193.54 119.022L193.39 119.171L192.994 119.419L192.953 119.488L192.919 119.556L192.905 119.959L192.659 120.195L192.605 120.288L192.373 120.771L192.038 121.224L191.813 121.72L191.738 121.832L191.587 121.969L191.417 122.08L191.144 122.192L190.509 122.372L189.628 122.676L189.403 122.837V122.924L189.553 123.06L189.444 123.153L189.095 123.252L188.972 123.333L188.897 123.556L188.597 123.736L188.508 123.829L188.488 123.984L188.535 124.034L188.658 124.121L188.836 124.133L188.959 124.09L189.307 123.873L189.403 123.86L189.642 123.736L190.126 123.47L190.522 123.321L190.768 123.197L191.219 122.893L191.43 122.7L191.813 122.204L192.086 121.652L192.618 120.691L192.878 120.288L193.131 119.946L194.045 118.359L194.284 118.011C194.284 118.011 194.322 117.975 194.36 117.931C194.412 117.871 194.482 117.807 194.482 117.807L194.803 117.558L195.152 117.23L195.363 116.951L195.589 116.566L195.821 116.306L196.06 116.182L196.483 116.082L196.756 115.977L197.323 115.685L197.412 115.605L197.773 115.394L197.869 115.288L198.142 115.09L198.579 114.445L198.825 114.184L199.139 113.713L199.521 113.316L199.733 113.148L199.993 113.037L200.109 112.876L200.443 112.627L200.839 112.46L201.747 111.964L201.979 111.92H202.232L202.86 111.815L203.345 111.771L203.68 111.647L203.98 111.48L204.117 111.443L204.28 111.455L204.724 111.647L204.922 111.672L205.086 111.66L205.298 111.604L205.769 111.399L205.919 111.387L206.103 111.399L206.315 111.492L206.363 111.536L206.547 111.815L206.786 112.044L206.8 112.199L206.773 112.448L206.82 112.572L206.909 112.596L206.936 112.541L206.998 112.28L207.093 112.168L207.148 112.156L207.244 112.187L207.257 112.237L207.271 112.404L207.23 112.572L207.285 112.584L207.367 112.448L207.394 112.032L207.578 111.716L207.776 111.424L208.104 111.071L208.336 110.736L208.671 110.394L209.258 110.035L209.592 109.911L210.016 109.787L210.323 109.619L210.596 109.414L210.794 109.334H211.477L211.716 109.303L211.825 109.222L211.962 108.962L212.126 108.85L212.399 108.862L212.644 108.931L213.341 108.807H213.505L213.976 108.906L214.147 108.943L214.42 109.166L214.645 109.414L214.891 109.582L215.041 109.787L215.089 109.911L215.116 110.047L215.055 110.475L214.98 110.711L214.829 110.959L214.782 111.108V111.275L214.706 111.412L214.645 111.443L214.556 111.424L214.297 111.319L214.42 111.48L214.543 111.548L214.597 111.592L214.768 111.567L214.904 111.412L215.28 110.227L215.389 109.954L215.492 109.458L215.649 109.086L215.847 108.683L215.874 108.521L215.724 108.298V108.23L215.751 108.162L215.813 108.131L215.997 108.149L216.209 108.075L216.297 107.969L216.393 107.758L216.509 107.578L216.618 107.485L216.919 107.318L217.192 107.237L217.485 106.933L217.649 106.822L217.909 106.71L218.243 106.481L219.063 106.077L219.65 105.86L219.909 105.736L220.135 105.581L220.455 105.321L220.701 105.197L221.111 105.06L221.35 105.048L221.5 105.097L221.992 105.432L222.456 105.594L222.504 105.65L222.517 105.792L222.381 106.077V106.164L222.429 106.214L222.504 106.233L222.565 106.189L222.9 105.736L223.46 104.576L223.535 104.465L223.794 104.217L224.293 103.336L224.716 102.771L225.037 102.412L225.371 101.847L225.597 101.68L225.72 101.63L225.89 101.612L226.327 101.63H226.416L227.01 101.791L227.768 101.767L228.403 101.822L228.813 101.68L229.27 101.488L229.755 101.227L230.103 101.115L230.649 101.06L231.305 101.239L231.38 101.227L231.667 101.035H231.789L232.261 101.202L232.622 101.258L232.882 101.146L233.08 100.935L233.203 100.898H233.292L233.715 101.171L234.2 101.407L234.275 101.519L234.248 101.698L234.2 101.835L234.002 102.04L233.974 102.108L233.94 102.275L234.022 102.288L234.138 102.219L234.37 101.971L234.568 101.643L234.794 101.382L235.231 100.743L235.429 100.551L235.49 100.514C235.486 100.49 235.306 99.4153 235.306 98.87C235.306 98.3188 235.736 97.9362 236.282 97.6605C236.828 97.3849 236.459 96.8879 236.398 96.6123C236.338 96.3367 235.918 96.5572 235.19 96.6123C234.462 96.6674 235.67 94.8996 235.852 94.3484C236.034 93.7971 235.736 91.9333 235.736 91.3712C235.736 91.0955 235.61 90.713 236.46 90.6579C236.884 90.6303 237.068 90.5496 237.129 90.3291C237.19 90.1086 237.252 90.0493 237.798 89.9942C238.344 89.9391 240.468 89.2223 240.529 89.0018C240.59 88.7813 240.648 88.673 240.891 88.673C241.134 88.673 241.803 88.4539 242.106 88.2885C242.229 88.2217 242.338 87.8034 242.441 87.2961C242.593 86.5484 242.728 85.6067 242.837 85.3112C243.019 84.8151 243.199 84.7578 243.745 84.6475C244.291 84.5373 245.076 84.3202 245.623 84.4305C246.169 84.5407 249.021 84.3174 249.446 84.2072C249.871 84.0969 249.511 83.988 250.3 84.3188C251.089 84.6496 251.696 84.5951 252 84.3746C252.303 84.1541 252.725 83.9879 253.939 83.8226C255.153 83.6572 255.214 83.9335 256.185 83.8784C257.156 83.8233 257.031 83.489 256.97 83.1031C256.91 82.7172 256.97 82.0562 257.032 81.6703C257.093 81.2844 256.673 80.8412 256.37 80.5104C256.066 80.1796 256.851 80.0176 257.155 79.7971C257.458 79.5766 257.276 79.4097 257.155 78.693C257.149 78.6575 257.142 78.6163 257.141 78.5752H82.7117L82.7108 78.5755ZM18.857 82.565C18.8201 82.6127 18.775 82.662 18.7204 82.7139C18.7777 82.6628 18.8197 82.6132 18.857 82.565ZM175.91 120.507L176.156 120.6L176.354 120.712L176.613 120.947L177.112 121.499L177.187 121.592L177.535 122.461L177.61 122.572L178.006 122.777L178.17 124.018L178.252 124.117L178.388 124.061L178.477 123.856L178.443 122.548L178.095 122.461L178.033 122.424L177.958 122.312L177.992 122.213L178.327 121.772H178.477L178.737 122.076L179.31 122.225L179.385 122.268L179.495 122.349L179.617 122.572L179.72 122.672L180.355 122.889L180.703 123.124L180.799 123.149L181.386 122.796L181.522 122.312L181.768 122.157L181.877 122.244L182.103 122.572L182.239 122.721L182.301 122.845L182.239 123.069L181.966 124.142L181.345 123.633L181.085 124.073L181.01 124.061L180.976 123.925L181.099 123.645V123.497L181.024 123.453H180.963L180.826 123.509L180.676 123.757L180.328 124.086L180.3 124.557L180.751 125.122L180.785 125.178L180.751 125.289L180.164 125.078L179.829 125.537L179.795 125.618L179.829 125.841L180.027 125.947L180.648 125.866L180.826 125.909L180.887 126.002L180.922 126.158L180.812 126.461L180.799 126.623L180.949 126.759L181.085 126.722L181.133 126.679L181.27 126.294L181.359 126.17L181.481 126.127L182.103 126.195L182.403 126.127L182.499 126.033L182.635 125.754L183.209 124.421L183.243 124.353L183.195 123.894L183.059 123.59L183.011 123.466L182.97 122.709L183.011 122.585L184.117 122.269L184.609 122.492L185.38 123.093L185.503 123.484L185.592 123.98L185.544 124.03L185.483 124.061L185.305 124.049L185.182 123.98L184.772 123.608L184.561 123.664L184.042 123.894L183.741 123.949L183.68 124.073L183.755 124.197L184.137 124.334L184.301 124.861L184.895 125.345L185.046 125.55L185.196 125.537L185.291 125.426L185.332 125.097L185.366 125.022L185.428 124.985H185.483L185.544 125.022L185.865 125.537L185.974 125.767L186.09 126.858L186.138 127.063L186.363 127.311L186.459 128.155L186.5 128.446L186.213 129.271L186.261 129.408L186.384 129.476H186.459L186.534 129.47L186.834 129.197L187.005 128.738L187.108 128.657L187.292 128.663L187.592 128.868L187.852 129.315L188.002 129.848L188.35 130.481L188.78 130.996L189.415 132.236L189.927 132.658L190.037 132.906L190.61 133.638L191.081 134.19L191.252 134.413L192.112 135.337L192.385 135.623L193.089 136.435L193.935 137.607L194.434 137.911L194.803 138.463L194.919 138.544L195.192 138.6L195.274 138.656L195.56 139.015L195.683 139.096L195.758 139.127H196.093L196.195 139.22L196.421 139.301L196.619 139.425L196.667 139.536L195.574 140.064L195.438 139.995L195.328 139.909L195.137 139.636L194.27 139.357L193.847 139.164L193.3 139.04L193.068 138.96L192.174 138.575L191.416 138.724L191.293 138.587L190.433 138.035L190.358 137.924L190.337 137.707L190.248 137.527L189.777 137.124L189.736 137.068L189.75 136.931L189.852 136.82L190.692 136.466L190.917 136.206L190.979 135.982L190.446 134.37L189.927 133.514L189.914 133.458L189.811 133.365L189.17 132.993L189.108 132.881L188.78 132.217L188.623 132.18H188.535L187.865 132.304L187.688 132.193L187.032 131.665L186.746 131.628L186.712 131.56L186.807 131.448L187.244 130.94L187.203 130.884L187.046 130.909L186.124 131.392L185.592 131.2L185.244 131.169L184.909 131.293L184.834 131.268L184.848 131.188L184.895 131.12L185.271 130.729L185.332 129.712L185.291 129.588L184.609 129.736L184.001 130.071L183.844 130.096L183.789 130.071L183.864 129.767L184.015 129.631L184.076 129.488L184.151 128.924L184.411 128.787L185.182 128.651L185.244 128.694L185.305 128.639L185.346 128.471L185.305 128.031L185.107 127.826L184.909 128.155L184.759 128.279L183.516 128.775L183.359 128.911L182.997 129.439L182.403 129.984L182.069 130.015L181.782 130.319L181.359 130.425L181.024 130.549H180.935L180.901 130.481L180.963 130.357L181.174 130.208L181.584 129.947L181.645 129.563L181.782 129.408L182.13 129.079L182.164 129.011L182.192 128.62L182.301 128.539L182.799 128.415L182.984 128.304L183.482 127.162L183.434 127.026L183.393 126.982L182.97 126.79L182.13 126.542H182.041L181.966 126.554L181.98 126.623L182.499 127.23L182.54 127.367L182.465 127.491L182.424 127.547L182.342 127.559L182.089 127.491H181.994L181.877 127.547L181.768 127.739L181.557 128.248L181.481 128.359L181.359 128.428L181.195 128.39L181.024 128.179L180.887 127.95L180.874 127.671L180.976 127.286L180.799 127.274L180.403 127.435L180.341 127.479L180.266 127.603L180.191 127.95V128.111L180.266 128.607L180.239 128.775L180.102 128.787L180.007 128.459L180.054 128.198L180.027 128.124H179.966L179.904 128.167L179.754 128.415L179.693 128.446L179.645 128.415L179.693 128.155L179.672 128.074L179.645 128.018L179.419 128.279L179.297 128.347L179.249 128.291L179.262 128.223L179.536 127.547L179.904 127.435L179.966 127.299L180.068 127.119L179.891 126.759L179.372 126.554L179.187 126.43V126.35L179.31 126.294L179.536 126.263V126.195L179.208 125.717L179.051 125.574L178.887 125.55L178.812 125.562L178.764 125.605L178.703 125.754L178.641 126.089L178.525 126.17L178.252 126.126L177.945 125.934L177.992 125.302L177.945 125.165L177.822 125.134L177.781 125.202L177.658 125.494L177.412 125.947L177.05 126.015L177.002 125.978V125.81L177.139 125.661L177.173 125.574L177.159 125.494L177.064 125.413L176.231 125.314L176.067 125.326L175.971 125.314L175.364 125.097L175.384 125.177L175.412 125.221L175.637 125.395L175.808 125.605L176.504 125.934L176.627 126.015L176.729 126.182L176.852 126.883L176.839 127.038L176.804 127.119L176.641 127.231L176.081 127.367L175.944 127.355L175.835 127.255L175.439 126.654L175.459 126.567L175.534 126.554L175.835 126.678L175.985 126.654L176.245 126.226L176.204 126.17L175.896 125.99L174.927 125.258L174.442 124.886L174.121 124.526L173.971 124.39L172.906 124.253L172.742 124.365L172.715 124.446L172.728 124.582L172.817 124.681L172.988 124.725H173.336L173.527 124.762L173.575 124.805L173.527 124.954L173.227 125.289L173.472 125.519L173.548 125.63L173.527 125.717L173.363 125.854L173.227 125.891L173.063 125.866L172.892 125.742L172.817 125.63L172.68 125.345L172.605 125.233L172.284 125.221L172.032 125.537L171.875 125.55L171.772 125.643H171.711L171.663 125.593L171.711 125.438V125.37L171.663 125.202L171.923 124.985L171.909 124.818L171.895 124.749L171.526 124.458L171.212 124.117L171.192 124.03L171.226 123.962L171.404 123.59L171.267 123.124L171.151 123.044L170.892 122.988L170.632 122.82L170.571 122.864L170.557 123.8L170.42 123.949H170.257L170.038 123.701L169.417 123.397L169.041 122.572L169.007 122.504L168.857 121.996L169.007 122.033L169.219 122.132H169.314L169.54 121.661L169.587 121.605L169.874 121.555L170.024 121.4L170.086 121.388L170.236 121.431L170.584 121.76L171.288 121.909L171.486 121.828L171.622 121.679L171.677 121.648L171.772 121.679L171.97 121.871L172.086 121.927L172.271 121.952L172.892 121.977L173.029 122.051L173.138 122.144L173.227 122.312L173.527 122.92L173.937 123.273L174.121 123.565L174.196 123.577L174.258 123.54L174.469 123.149L174.62 123.168L174.804 123.521L174.879 123.633L174.94 123.676H175.029L175.698 123.621L175.138 122.808L174.988 122.752L174.79 122.448H174.865L175.091 122.529H175.186L175.275 122.448H175.896L175.883 123.217H175.958L176.49 122.709V122.349L176.306 122.299L176.245 122.268L175.746 121.648L175.712 121.512L175.773 120.544L175.835 120.519L175.91 120.513V120.507Z" fill="#FFDB8A"/>
</g>
<defs>
<clipPath id="clip0_405_8016">
<rect width="259.26" height="158.379" fill="white"/>
</clipPath>
</defs>
</svg>
