<svg width="30" height="27" viewBox="0 0 30 27" fill="none" xmlns="http://www.w3.org/2000/svg">
<path d="M8.328 15L9.5985 11.8275L10.866 15H8.328ZM21 13.5H22.5V16.5H21C20.6022 16.5 20.2206 16.342 19.9393 16.0607C19.658 15.7794 19.5 15.3978 19.5 15C19.5 14.6022 19.658 14.2206 19.9393 13.9393C20.2206 13.658 20.6022 13.5 21 13.5ZM28.5 0H1.5C1.10218 0 0.720644 0.158035 0.43934 0.43934C0.158035 0.720644 0 1.10218 0 1.5V25.5C0 25.8978 0.158035 26.2794 0.43934 26.5607C0.720644 26.842 1.10218 27 1.5 27H28.5C28.8978 27 29.2794 26.842 29.5607 26.5607C29.842 26.2794 30 25.8978 30 25.5V1.5C30 1.10218 29.842 0.720644 29.5607 0.43934C29.2794 0.158035 28.8978 0 28.5 0ZM15.897 19.5H12.6645L12.0645 18H7.1295L6.5295 19.5H3.2985L5.097 15.003L5.0985 15L8.0985 7.5H11.0985L15.897 19.5ZM22.5 7.5H25.5V19.5H21C19.8065 19.5 18.6619 19.0259 17.818 18.182C16.9741 17.3381 16.5 16.1935 16.5 15C16.5 13.8065 16.9741 12.6619 17.818 11.818C18.6619 10.9741 19.8065 10.5 21 10.5H22.5V7.5Z" fill="#0D2D4A"/>
</svg>
