<svg width="30" height="30" viewBox="0 0 30 30" fill="none" xmlns="http://www.w3.org/2000/svg">
<path d="M30 13.0089C30 14.1006 30 15.2006 30 16.2922C29.8917 16.3506 29.7833 16.4256 29.6667 16.4756C28.6667 16.9089 27.675 17.3672 26.65 17.7422C26.0833 17.9506 25.7 18.2422 25.55 18.8422C25.4917 19.0756 25.3833 19.3006 25.2667 19.5172C25.15 19.7506 25.1583 19.9506 25.275 20.1922C25.7833 21.3089 26.2583 22.4339 26.7583 23.5589C26.8583 23.7922 26.8083 23.9422 26.625 24.1172C25.9833 24.7172 25.3583 25.3339 24.7417 25.9672C24.5333 26.1839 24.3417 26.2339 24.075 26.1256C22.9083 25.6589 21.7333 25.2089 20.575 24.7422C20.3583 24.6506 20.175 24.6506 19.9667 24.7506C19.5667 24.9256 19.1583 25.1006 18.75 25.2506C18.525 25.3339 18.4083 25.4589 18.325 25.6756C17.8667 26.8339 17.3833 27.9839 16.9083 29.1339C16.825 29.3506 16.6833 29.4339 16.4417 29.4256C15.5417 29.4089 14.6417 29.4089 13.75 29.4256C13.4583 29.4339 13.3 29.3339 13.1833 29.0839C12.6833 27.9256 12.175 26.7672 11.65 25.6089C11.5917 25.4839 11.4667 25.3589 11.3417 25.3006C10.9083 25.1006 10.4583 24.9422 10.025 24.7506C9.81667 24.6589 9.65 24.6756 9.44167 24.7672C8.28333 25.2672 7.10833 25.7422 5.94167 26.2339C5.71667 26.3339 5.55833 26.2839 5.38333 26.1006C4.78333 25.4756 4.16667 24.8589 3.53333 24.2672C3.3 24.0506 3.24167 23.8506 3.35833 23.5589C3.84167 22.4089 4.30833 21.2589 4.775 20.1006C4.825 19.9756 4.83333 19.7922 4.78333 19.6672C4.61667 19.2089 4.425 18.7589 4.21667 18.3256C4.15 18.1922 4.01667 18.0589 3.88333 18.0089C3.3 17.7756 2.69167 17.5839 2.10833 17.3422C1.4 17.0422 0.7 16.7172 0 16.4089C0 15.3172 0 14.2172 0 13.1256C0.133333 13.0506 0.266667 12.9589 0.408333 12.9006C1.48333 12.4422 2.55833 11.9839 3.64167 11.5506C3.975 11.4172 4.2 11.2506 4.30833 10.9006C4.41667 10.5506 4.58333 10.2089 4.74167 9.87556C4.84167 9.6589 4.83333 9.47556 4.73333 9.25056C4.23333 8.14223 3.75833 7.01723 3.26667 5.9089C3.15 5.65056 3.18333 5.47556 3.4 5.27556C4.03333 4.6839 4.65 4.07556 5.25833 3.4589C5.46667 3.24223 5.65833 3.19223 5.925 3.30056C7.08333 3.7589 8.24167 4.20056 9.4 4.66723C9.61667 4.75889 9.80833 4.7839 10.0333 4.67556C10.4333 4.49223 10.8333 4.32556 11.25 4.17556C11.475 4.09223 11.5833 3.96723 11.675 3.75056C12.1333 2.60056 12.6083 1.4589 13.075 0.317229C13.175 0.0755621 13.325 -0.00777126 13.5917 0.000562071C14.4833 0.0172287 15.3667 0.0172287 16.2583 0.000562071C16.55 -0.00777126 16.7083 0.0922287 16.8167 0.350562C17.3167 1.5089 17.825 2.66723 18.3417 3.82556C18.4 3.95056 18.525 4.07556 18.65 4.13389C19.0833 4.3339 19.5333 4.49223 19.9667 4.6839C20.175 4.77556 20.3417 4.75056 20.5417 4.66723C21.6917 4.17556 22.8583 3.70056 24.0167 3.2089C24.25 3.1089 24.4167 3.1339 24.6083 3.32556C25.2167 3.95056 25.8333 4.5589 26.475 5.15056C26.7167 5.37556 26.7583 5.57556 26.6417 5.86723C26.1667 7.01723 25.6917 8.16723 25.2333 9.32556C25.1833 9.45056 25.1833 9.62556 25.225 9.7589C25.3917 10.2172 25.5833 10.6672 25.7917 11.1006C25.85 11.2339 25.9917 11.3672 26.1167 11.4172C26.6917 11.6506 27.2917 11.8422 27.8667 12.0756C28.5833 12.3672 29.2917 12.6922 30 13.0089ZM15.0083 10.0172C12.3583 10.0172 10.2 12.1172 10.2 14.7006C10.2 17.2839 12.3583 19.4006 15 19.4006C17.65 19.4006 19.8083 17.3006 19.8083 14.7172C19.8083 12.1256 17.65 10.0172 15.0083 10.0172Z" fill="#0D2D4A"/>
</svg>
