<svg width="30" height="27" viewBox="0 0 30 27" fill="none" xmlns="http://www.w3.org/2000/svg">
<path d="M5.12833 22.8968L1.16167 26.7892C0.947222 26.9996 0.7 27.0525 0.42 26.9478C0.14 26.8432 0 26.6415 0 26.3427V2.64458C0 1.89116 0.257222 1.26259 0.771667 0.758864C1.28611 0.255135 1.92611 0.00218064 2.69167 0H27.3083C28.075 0 28.715 0.25241 29.2283 0.757229C29.7417 1.26205 29.9989 1.89062 30 2.64294V20.2555C30 21.0078 29.7428 21.6363 29.2283 22.1412C28.7139 22.646 28.0739 22.8978 27.3083 22.8968H5.12833ZM15 14.9925L17.7833 16.6541C18.0233 16.8024 18.2644 16.7904 18.5067 16.6181C18.7478 16.4448 18.8378 16.2125 18.7767 15.9214L18.0383 12.8353L20.4883 10.7697C20.7217 10.5658 20.7939 10.3303 20.705 10.0631C20.6161 9.796 20.4194 9.6488 20.115 9.62154L16.8883 9.33534L15.6217 6.42254C15.5039 6.15759 15.2967 6.02512 15 6.02512C14.7033 6.02512 14.4961 6.15759 14.3783 6.42254L13.1117 9.3337L9.885 9.62154C9.58167 9.6488 9.385 9.796 9.295 10.0631C9.205 10.3303 9.27722 10.5658 9.51167 10.7697L11.9617 12.8353L11.225 15.9198C11.1628 16.212 11.2522 16.4448 11.4933 16.6181C11.7344 16.7915 11.9761 16.8035 12.2183 16.6541L15 14.9925Z" fill="#0D2D4A"/>
</svg>
