<svg width="25" height="30" viewBox="0 0 25 30" fill="none" xmlns="http://www.w3.org/2000/svg">
<path d="M12.5 18C13.3594 18 14.0953 17.7065 14.7078 17.1195C15.3203 16.5325 15.626 15.826 15.625 15C15.624 14.174 15.3182 13.468 14.7078 12.882C14.0974 12.296 13.3615 12.002 12.5 12C11.6385 11.998 10.9031 12.292 10.2938 12.882C9.68438 13.472 9.37813 14.178 9.375 15C9.37187 15.822 9.67813 16.5285 10.2938 17.1195C10.9094 17.7105 11.6448 18.004 12.5 18ZM6.25 24H18.75V23.1375C18.75 22.5375 18.5807 21.9875 18.2422 21.4875C17.9036 20.9875 17.4349 20.6125 16.8359 20.3625C16.1589 20.0875 15.462 19.875 14.7453 19.725C14.0286 19.575 13.2802 19.5 12.5 19.5C11.7198 19.5 10.9714 19.575 10.2547 19.725C9.53802 19.875 8.84115 20.0875 8.16406 20.3625C7.5651 20.6125 7.09635 20.9875 6.75781 21.4875C6.41927 21.9875 6.25 22.5375 6.25 23.1375V24ZM21.875 30H3.125C2.26562 30 1.53021 29.7065 0.91875 29.1195C0.307291 28.5325 0.00104167 27.826 0 27V3C0 2.175 0.30625 1.469 0.91875 0.882C1.53125 0.295 2.26667 0.001 3.125 0H15.625L25 9V27C25 27.825 24.6943 28.5315 24.0828 29.1195C23.4714 29.7075 22.7354 30.001 21.875 30Z" fill="#1D3F5E"/>
</svg>
