<svg width="27" height="27" viewBox="0 0 27 27" fill="none" xmlns="http://www.w3.org/2000/svg">
<path d="M24.2261 12.7877C23.1792 13.8378 21.8443 14.5535 20.3903 14.8443C18.9364 15.1351 17.4288 14.9879 16.0586 14.4212L7.13213 25.1792C5.49863 26.8127 2.85862 26.8127 1.22512 25.1792C-0.408375 23.5457 -0.408375 20.9057 1.22512 19.2887L11.9831 10.3457C10.8611 7.62323 11.4056 4.38923 13.6166 2.17823C15.7286 0.0662328 18.7646 -0.494767 21.4046 0.429233L16.6361 5.19773L21.2891 9.85073L26.0081 5.11523C26.8826 7.72223 26.3051 10.7087 24.2261 12.7877ZM2.99062 23.4137C3.65062 24.0572 4.70662 24.0572 5.35012 23.4137C6.01012 22.7537 6.01012 21.6977 5.35012 21.0542C4.70662 20.3942 3.65062 20.3942 2.99062 21.0542C2.68126 21.369 2.50791 21.7927 2.50791 22.234C2.50791 22.6753 2.68126 23.099 2.99062 23.4137Z" fill="#0D2D4A"/>
</svg>
