<svg width="30" height="22" viewBox="0 0 30 22" fill="none" xmlns="http://www.w3.org/2000/svg">
<path d="M15 0C17.6906 0 19.875 2.20948 19.875 4.93103C19.875 7.65259 17.6906 9.86207 15 9.86207C12.3094 9.86207 10.125 7.65259 10.125 4.93103C10.125 2.20948 12.3094 0 15 0ZM4.5 3.41379C6.36562 3.41379 7.875 4.94052 7.875 6.82759C7.875 8.71465 6.36562 10.2414 4.5 10.2414C2.63437 10.2414 1.125 8.71465 1.125 6.82759C1.125 4.94052 2.63437 3.41379 4.5 3.41379ZM0 18.9655C0 15.6134 2.68594 12.8966 6 12.8966C6.6 12.8966 7.18125 12.9866 7.72969 13.1526C6.1875 14.8974 5.25 17.2017 5.25 19.7241V20.4828C5.25 21.0233 5.3625 21.5353 5.56406 22H1.5C0.670312 22 0 21.322 0 20.4828V18.9655ZM24.4359 22C24.6375 21.5353 24.75 21.0233 24.75 20.4828V19.7241C24.75 17.2017 23.8125 14.8974 22.2703 13.1526C22.8188 12.9866 23.4 12.8966 24 12.8966C27.3141 12.8966 30 15.6134 30 18.9655V20.4828C30 21.322 29.3297 22 28.5 22H24.4359ZM22.125 6.82759C22.125 4.94052 23.6344 3.41379 25.5 3.41379C27.3656 3.41379 28.875 4.94052 28.875 6.82759C28.875 8.71465 27.3656 10.2414 25.5 10.2414C23.6344 10.2414 22.125 8.71465 22.125 6.82759ZM7.5 19.7241C7.5 15.5328 10.8563 12.1379 15 12.1379C19.1438 12.1379 22.5 15.5328 22.5 19.7241V20.4828C22.5 21.322 21.8297 22 21 22H9C8.17031 22 7.5 21.322 7.5 20.4828V19.7241Z" fill="#0D2D4A"/>
</svg>
