<svg width="13" height="14" viewBox="0 0 13 14" fill="none" xmlns="http://www.w3.org/2000/svg">
<path d="M13 1.75088V5.25963C13 5.93197 12.9146 6.57162 12.7437 7.17859C12.5729 7.78556 12.3351 8.36452 12.0304 8.91546C11.7256 9.4664 11.3678 9.98232 10.9568 10.4632C10.5459 10.9441 10.1003 11.397 9.62014 11.8219C9.13994 12.2468 8.63435 12.639 8.10336 12.9985C7.57237 13.358 7.03907 13.6918 6.50346 14C5.96786 13.7152 5.43687 13.393 4.9105 13.0335C4.38412 12.674 3.87853 12.2795 3.39371 11.8499C2.9089 11.4204 2.46102 10.9605 2.05008 10.4702C1.63914 9.97999 1.2813 9.45706 0.976558 8.90145C0.671817 8.34584 0.434026 7.76688 0.263186 7.16458C0.0923459 6.56228 0.0046173 5.9273 0 5.25963V1.75088C0.387853 1.75088 0.754928 1.7392 1.10123 1.71586C1.44752 1.69251 1.78689 1.64115 2.11934 1.56178C2.45178 1.48241 2.77961 1.37969 3.10282 1.25363C3.42603 1.12756 3.75617 0.952476 4.09323 0.728364C4.28716 0.60697 4.47878 0.501918 4.66809 0.413207C4.8574 0.324496 5.04901 0.247457 5.24294 0.182091C5.43687 0.116725 5.63772 0.0723695 5.8455 0.0490245C6.05328 0.0256795 6.2726 0.009338 6.50346 0C6.73895 0 6.96058 0.014007 7.16835 0.042021C7.37613 0.070035 7.57698 0.116725 7.77091 0.182091C7.96484 0.247457 8.15646 0.324496 8.34576 0.413207C8.53507 0.501918 8.72669 0.611639 8.92062 0.742371C9.24845 0.952476 9.57397 1.12289 9.89718 1.25363C10.2204 1.38436 10.5482 1.48708 10.8807 1.56178C11.2131 1.63648 11.5548 1.68551 11.9057 1.70885C12.2566 1.7322 12.6214 1.74621 13 1.75088ZM9.96644 9.02051L7.54928 6.57629L9.98029 4.11106L8.93447 3.06053L6.50346 5.51876L4.06553 3.06053L3.02664 4.11106L5.45765 6.57629L3.02664 9.03452L4.06553 10.092L6.50346 7.63382L8.92062 10.078L9.96644 9.02051Z" fill="#B23033"/>
</svg>
