<svg width="15" height="12" viewBox="0 0 15 12" fill="none" xmlns="http://www.w3.org/2000/svg">
<g clip-path="url(#clip0_4074_40893)">
<path d="M8.87913 6.01319C10.4875 7.70208 12.0833 9.37764 13.7333 11.111C9.55413 11.111 5.45413 11.111 1.4458 11.111C2.95413 9.43097 4.50413 7.70653 6.06663 5.96875C7.03747 6.88875 7.9583 6.90653 8.87913 6.01319Z" fill="#378A48"/>
<path d="M1.11255 0.786621C5.39588 0.786621 9.60422 0.786621 13.8126 0.786621C13.8209 0.808843 13.8292 0.83551 13.8334 0.857732C13.2792 1.33773 12.725 1.82218 12.1667 2.29773C10.8875 3.39551 9.61255 4.48884 8.33338 5.58662C7.72505 6.11107 7.28755 6.11995 6.68755 5.6044C4.90838 4.07995 3.12922 2.55107 1.35005 1.02218C1.28338 0.968843 1.22922 0.902177 1.11255 0.786621Z" fill="#378A48"/>
<path d="M9.3877 5.57869C11.0627 4.14313 12.7044 2.7298 14.4085 1.26758C14.446 1.48536 14.496 1.64091 14.496 1.79647C14.5002 4.56091 14.5044 7.32536 14.496 10.0898C14.496 10.2898 14.4127 10.4898 14.3502 10.7787C12.6627 9.0098 11.046 7.31647 9.3877 5.57869Z" fill="#378A48"/>
<path d="M0.579079 1.25342C2.30408 2.73342 3.94575 4.14675 5.61241 5.57342C3.96658 7.30231 2.34575 9.00008 0.658246 10.7734C0.595745 10.4934 0.508245 10.289 0.504079 10.0801C0.495745 7.32897 0.499912 4.57786 0.504079 1.82675C0.504079 1.66675 0.545745 1.50675 0.579079 1.25342Z" fill="#378A48"/>
</g>
<defs>
<clipPath id="clip0_4074_40893">
<rect width="15" height="12" fill="white"/>
</clipPath>
</defs>
</svg>
